solid inlet, STL ascii file, created with Open CASCADE Technology
 facet normal 0.000000e+000 -1.000000e+000 -0.000000e+000
   outer loop
     vertex 2.050000e+000 5.000000e-002 2.200000e+000
     vertex 1.900000e+000 5.000000e-002 2.000000e+000
     vertex 2.050000e+000 5.000000e-002 2.000000e+000
   endloop
 endfacet
 facet normal -0.000000e+000 -1.000000e+000 0.000000e+000
   outer loop
     vertex 2.050000e+000 5.000000e-002 2.200000e+000
     vertex 1.900000e+000 5.000000e-002 2.200000e+000
     vertex 1.900000e+000 5.000000e-002 2.000000e+000
   endloop
 endfacet
 facet normal 0.000000e+000 -1.000000e+000 -0.000000e+000
   outer loop
     vertex 6.650000e+000 5.000000e-002 2.200000e+000
     vertex 6.500000e+000 5.000000e-002 2.000000e+000
     vertex 6.650000e+000 5.000000e-002 2.000000e+000
   endloop
 endfacet
 facet normal -0.000000e+000 -1.000000e+000 0.000000e+000
   outer loop
     vertex 6.650000e+000 5.000000e-002 2.200000e+000
     vertex 6.500000e+000 5.000000e-002 2.200000e+000
     vertex 6.500000e+000 5.000000e-002 2.000000e+000
   endloop
 endfacet
endsolid inlet
