solid walls, STL ascii file, created with Open CASCADE Technology
 facet normal 0.000000e+000 -0.000000e+000 -1.000000e+000
   outer loop
     vertex 6.650000e+000 5.000000e-002 2.200000e+000
     vertex 6.650000e+000 -1.290828e-033 2.200000e+000
     vertex 6.500000e+000 -1.261712e-033 2.200000e+000
   endloop
 endfacet
 facet normal -0.000000e+000 0.000000e+000 -1.000000e+000
   outer loop
     vertex 6.650000e+000 5.000000e-002 2.200000e+000
     vertex 6.500000e+000 -1.261712e-033 2.200000e+000
     vertex 6.500000e+000 5.000000e-002 2.200000e+000
   endloop
 endfacet
 facet normal 0.000000e+000 0.000000e+000 1.000000e+000
   outer loop
     vertex 2.100000e+000 5.000000e-002 1.800000e+000
     vertex 2.100000e+000 -4.076299e-034 1.800000e+000
     vertex 2.500000e+000 -4.852737e-034 1.800000e+000
   endloop
 endfacet
 facet normal -0.000000e+000 0.000000e+000 1.000000e+000
   outer loop
     vertex 2.100000e+000 5.000000e-002 1.800000e+000
     vertex 2.500000e+000 -4.852737e-034 1.800000e+000
     vertex 2.500000e+000 5.000000e-002 1.800000e+000
   endloop
 endfacet
 facet normal 0.000000e+000 1.000000e+000 0.000000e+000
   outer loop
     vertex 8.720000e+000 7.030000e+000 2.580000e+000
     vertex 8.890000e+000 7.030000e+000 0.000000e+000
     vertex 8.720000e+000 7.030000e+000 0.000000e+000
   endloop
 endfacet
 facet normal -0.000000e+000 1.000000e+000 0.000000e+000
   outer loop
     vertex 8.720000e+000 7.030000e+000 2.580000e+000
     vertex 8.890000e+000 7.030000e+000 2.580000e+000
     vertex 8.890000e+000 7.030000e+000 0.000000e+000
   endloop
 endfacet
 facet normal 1.000000e+000 0.000000e+000 0.000000e+000
   outer loop
     vertex 4.205000e+000 7.310000e+000 2.580000e+000
     vertex 4.205000e+000 7.030000e+000 0.000000e+000
     vertex 4.205000e+000 7.310000e+000 0.000000e+000
   endloop
 endfacet
 facet normal 1.000000e+000 0.000000e+000 0.000000e+000
   outer loop
     vertex 4.205000e+000 7.310000e+000 2.580000e+000
     vertex 4.205000e+000 7.030000e+000 2.580000e+000
     vertex 4.205000e+000 7.030000e+000 0.000000e+000
   endloop
 endfacet
 facet normal -1.000000e+000 0.000000e+000 0.000000e+000
   outer loop
     vertex 4.685000e+000 0.000000e+000 2.580000e+000
     vertex 4.685000e+000 2.800000e-001 0.000000e+000
     vertex 4.685000e+000 0.000000e+000 0.000000e+000
   endloop
 endfacet
 facet normal -1.000000e+000 0.000000e+000 0.000000e+000
   outer loop
     vertex 4.685000e+000 0.000000e+000 2.580000e+000
     vertex 4.685000e+000 2.800000e-001 2.580000e+000
     vertex 4.685000e+000 2.800000e-001 0.000000e+000
   endloop
 endfacet
 facet normal 1.000000e+000 0.000000e+000 0.000000e+000
   outer loop
     vertex 8.720000e+000 7.310000e+000 2.580000e+000
     vertex 8.720000e+000 7.030000e+000 0.000000e+000
     vertex 8.720000e+000 7.310000e+000 0.000000e+000
   endloop
 endfacet
 facet normal 1.000000e+000 0.000000e+000 0.000000e+000
   outer loop
     vertex 8.720000e+000 7.310000e+000 2.580000e+000
     vertex 8.720000e+000 7.030000e+000 2.580000e+000
     vertex 8.720000e+000 7.030000e+000 0.000000e+000
   endloop
 endfacet
 facet normal 0.000000e+000 0.000000e+000 1.000000e+000
   outer loop
     vertex 6.500000e+000 5.000000e-002 2.000000e+000
     vertex 6.500000e+000 -1.261712e-033 2.000000e+000
     vertex 6.650000e+000 -1.290828e-033 2.000000e+000
   endloop
 endfacet
 facet normal -0.000000e+000 0.000000e+000 1.000000e+000
   outer loop
     vertex 6.500000e+000 5.000000e-002 2.000000e+000
     vertex 6.650000e+000 -1.290828e-033 2.000000e+000
     vertex 6.650000e+000 5.000000e-002 2.000000e+000
   endloop
 endfacet
 facet normal 1.000000e+000 0.000000e+000 0.000000e+000
   outer loop
     vertex 1.900000e+000 5.000000e-002 2.200000e+000
     vertex 1.900000e+000 -3.688080e-034 2.200000e+000
     vertex 1.900000e+000 -3.688080e-034 2.000000e+000
   endloop
 endfacet
 facet normal 1.000000e+000 0.000000e+000 0.000000e+000
   outer loop
     vertex 1.900000e+000 5.000000e-002 2.200000e+000
     vertex 1.900000e+000 -3.688080e-034 2.000000e+000
     vertex 1.900000e+000 5.000000e-002 2.000000e+000
   endloop
 endfacet
 facet normal 0.000000e+000 0.000000e+000 1.000000e+000
   outer loop
     vertex 6.700000e+000 5.000000e-002 1.800000e+000
     vertex 6.700000e+000 -1.300533e-033 1.800000e+000
     vertex 7.100000e+000 -1.378177e-033 1.800000e+000
   endloop
 endfacet
 facet normal -0.000000e+000 0.000000e+000 1.000000e+000
   outer loop
     vertex 6.700000e+000 5.000000e-002 1.800000e+000
     vertex 7.100000e+000 -1.378177e-033 1.800000e+000
     vertex 7.100000e+000 5.000000e-002 1.800000e+000
   endloop
 endfacet
 facet normal 0.000000e+000 1.000000e+000 0.000000e+000
   outer loop
     vertex 1.700000e-001 7.310000e+000 2.580000e+000
     vertex 4.205000e+000 7.310000e+000 0.000000e+000
     vertex 1.700000e-001 7.310000e+000 0.000000e+000
   endloop
 endfacet
 facet normal -0.000000e+000 1.000000e+000 0.000000e+000
   outer loop
     vertex 1.700000e-001 7.310000e+000 2.580000e+000
     vertex 4.205000e+000 7.310000e+000 2.580000e+000
     vertex 4.205000e+000 7.310000e+000 0.000000e+000
   endloop
 endfacet
 facet normal 1.000000e+000 0.000000e+000 0.000000e+000
   outer loop
     vertex 8.890000e+000 7.030000e+000 2.580000e+000
     vertex 8.890000e+000 -1.725633e-033 0.000000e+000
     vertex 8.890000e+000 7.030000e+000 0.000000e+000
   endloop
 endfacet
 facet normal 1.000000e+000 0.000000e+000 0.000000e+000
   outer loop
     vertex 8.890000e+000 7.030000e+000 2.580000e+000
     vertex 8.890000e+000 0.000000e+000 2.580000e+000
     vertex 8.890000e+000 -1.725633e-033 0.000000e+000
   endloop
 endfacet
 facet normal 1.000000e+000 0.000000e+000 0.000000e+000
   outer loop
     vertex 6.500000e+000 5.000000e-002 2.200000e+000
     vertex 6.500000e+000 -1.261712e-033 2.200000e+000
     vertex 6.500000e+000 -1.261712e-033 2.000000e+000
   endloop
 endfacet
 facet normal 1.000000e+000 0.000000e+000 0.000000e+000
   outer loop
     vertex 6.500000e+000 5.000000e-002 2.200000e+000
     vertex 6.500000e+000 -1.261712e-033 2.000000e+000
     vertex 6.500000e+000 5.000000e-002 2.000000e+000
   endloop
 endfacet
 facet normal 0.000000e+000 1.000000e+000 0.000000e+000
   outer loop
     vertex 0.000000e+000 7.030000e+000 2.580000e+000
     vertex 1.700000e-001 7.030000e+000 0.000000e+000
     vertex 0.000000e+000 7.030000e+000 0.000000e+000
   endloop
 endfacet
 facet normal -0.000000e+000 1.000000e+000 0.000000e+000
   outer loop
     vertex 0.000000e+000 7.030000e+000 2.580000e+000
     vertex 1.700000e-001 7.030000e+000 2.580000e+000
     vertex 1.700000e-001 7.030000e+000 0.000000e+000
   endloop
 endfacet
 facet normal 0.000000e+000 0.000000e+000 1.000000e+000
   outer loop
     vertex 1.900000e+000 5.000000e-002 2.000000e+000
     vertex 1.900000e+000 -3.688080e-034 2.000000e+000
     vertex 2.050000e+000 -3.979244e-034 2.000000e+000
   endloop
 endfacet
 facet normal -0.000000e+000 0.000000e+000 1.000000e+000
   outer loop
     vertex 1.900000e+000 5.000000e-002 2.000000e+000
     vertex 2.050000e+000 -3.979244e-034 2.000000e+000
     vertex 2.050000e+000 5.000000e-002 2.000000e+000
   endloop
 endfacet
 facet normal -1.000000e+000 0.000000e+000 0.000000e+000
   outer loop
     vertex 2.050000e+000 5.000000e-002 2.000000e+000
     vertex 2.050000e+000 -3.979244e-034 2.000000e+000
     vertex 2.050000e+000 -3.979244e-034 2.200000e+000
   endloop
 endfacet
 facet normal -1.000000e+000 0.000000e+000 0.000000e+000
   outer loop
     vertex 2.050000e+000 5.000000e-002 2.000000e+000
     vertex 2.050000e+000 -3.979244e-034 2.200000e+000
     vertex 2.050000e+000 5.000000e-002 2.200000e+000
   endloop
 endfacet
 facet normal -1.000000e+000 0.000000e+000 0.000000e+000
   outer loop
     vertex 2.500000e+000 5.000000e-002 1.800000e+000
     vertex 2.500000e+000 -4.852737e-034 1.800000e+000
     vertex 2.500000e+000 -4.852737e-034 2.200000e+000
   endloop
 endfacet
 facet normal -1.000000e+000 0.000000e+000 0.000000e+000
   outer loop
     vertex 2.500000e+000 5.000000e-002 1.800000e+000
     vertex 2.500000e+000 -4.852737e-034 2.200000e+000
     vertex 2.500000e+000 5.000000e-002 2.200000e+000
   endloop
 endfacet
 facet normal 0.000000e+000 -0.000000e+000 -1.000000e+000
   outer loop
     vertex 2.050000e+000 5.000000e-002 2.200000e+000
     vertex 2.050000e+000 -3.979244e-034 2.200000e+000
     vertex 1.900000e+000 -3.688080e-034 2.200000e+000
   endloop
 endfacet
 facet normal -0.000000e+000 0.000000e+000 -1.000000e+000
   outer loop
     vertex 2.050000e+000 5.000000e-002 2.200000e+000
     vertex 1.900000e+000 -3.688080e-034 2.200000e+000
     vertex 1.900000e+000 5.000000e-002 2.200000e+000
   endloop
 endfacet
 facet normal 0.000000e+000 1.000000e+000 0.000000e+000
   outer loop
     vertex 4.685000e+000 7.310000e+000 2.580000e+000
     vertex 8.720000e+000 7.310000e+000 0.000000e+000
     vertex 4.685000e+000 7.310000e+000 0.000000e+000
   endloop
 endfacet
 facet normal -0.000000e+000 1.000000e+000 0.000000e+000
   outer loop
     vertex 4.685000e+000 7.310000e+000 2.580000e+000
     vertex 8.720000e+000 7.310000e+000 2.580000e+000
     vertex 8.720000e+000 7.310000e+000 0.000000e+000
   endloop
 endfacet
 facet normal -6.951579e-034 -1.000000e+000 0.000000e+000
   outer loop
     vertex 6.500000e+000 -1.261712e-033 2.000000e+000
     vertex 4.685000e+000 0.000000e+000 2.580000e+000
     vertex 4.685000e+000 0.000000e+000 0.000000e+000
   endloop
 endfacet
 facet normal -4.324851e-034 -1.000000e+000 -2.383756e-034
   outer loop
     vertex 6.500000e+000 -1.261712e-033 2.000000e+000
     vertex 4.685000e+000 0.000000e+000 0.000000e+000
     vertex 6.700000e+000 -1.300533e-033 1.800000e+000
   endloop
 endfacet
 facet normal -1.941095e-034 -1.000000e+000 -1.510669e-047
   outer loop
     vertex 6.650000e+000 -1.290828e-033 2.000000e+000
     vertex 6.500000e+000 -1.261712e-033 2.000000e+000
     vertex 6.700000e+000 -1.300533e-033 1.800000e+000
   endloop
 endfacet
 facet normal -6.951579e-034 -1.000000e+000 -0.000000e+000
   outer loop
     vertex 6.500000e+000 -1.261712e-033 2.200000e+000
     vertex 4.685000e+000 0.000000e+000 2.580000e+000
     vertex 6.500000e+000 -1.261712e-033 2.000000e+000
   endloop
 endfacet
 facet normal -4.103765e-034 -1.000000e+000 -2.631249e-034
   outer loop
     vertex 8.890000e+000 -1.725633e-033 0.000000e+000
     vertex 6.700000e+000 -1.300533e-033 1.800000e+000
     vertex 4.685000e+000 0.000000e+000 0.000000e+000
   endloop
 endfacet
 facet normal -1.941095e-034 -1.000000e+000 0.000000e+000
   outer loop
     vertex 6.700000e+000 -1.300533e-033 2.200000e+000
     vertex 6.650000e+000 -1.290828e-033 2.200000e+000
     vertex 6.650000e+000 -1.290828e-033 2.000000e+000
   endloop
 endfacet
 facet normal -1.941095e-034 -1.000000e+000 -6.206754e-048
   outer loop
     vertex 7.100000e+000 -1.378177e-033 1.800000e+000
     vertex 6.700000e+000 -1.300533e-033 1.800000e+000
     vertex 8.890000e+000 -1.725633e-033 0.000000e+000
   endloop
 endfacet
 facet normal 7.699314e-034 -1.000000e+000 0.000000e+000
   outer loop
     vertex 8.890000e+000 0.000000e+000 2.580000e+000
     vertex 7.100000e+000 -1.378177e-033 2.200000e+000
     vertex 7.100000e+000 -1.378177e-033 1.800000e+000
   endloop
 endfacet
 facet normal 4.784772e-034 -1.000000e+000 6.688501e-034
   outer loop
     vertex 8.890000e+000 0.000000e+000 2.580000e+000
     vertex 7.100000e+000 -1.378177e-033 1.800000e+000
     vertex 8.890000e+000 -1.725633e-033 0.000000e+000
   endloop
 endfacet
 facet normal 0.000000e+000 -1.000000e+000 3.320294e-033
   outer loop
     vertex 8.890000e+000 0.000000e+000 2.580000e+000
     vertex 4.685000e+000 0.000000e+000 2.580000e+000
     vertex 6.500000e+000 -1.261712e-033 2.200000e+000
   endloop
 endfacet
 facet normal -1.941095e-034 -1.000000e+000 4.541140e-033
   outer loop
     vertex 8.890000e+000 0.000000e+000 2.580000e+000
     vertex 6.500000e+000 -1.261712e-033 2.200000e+000
     vertex 6.650000e+000 -1.290828e-033 2.200000e+000
   endloop
 endfacet
 facet normal -1.941095e-034 -1.000000e+000 4.541140e-033
   outer loop
     vertex 8.890000e+000 0.000000e+000 2.580000e+000
     vertex 6.650000e+000 -1.290828e-033 2.200000e+000
     vertex 6.700000e+000 -1.300533e-033 2.200000e+000
   endloop
 endfacet
 facet normal -1.941095e-034 -1.000000e+000 4.541140e-033
   outer loop
     vertex 8.890000e+000 0.000000e+000 2.580000e+000
     vertex 6.700000e+000 -1.300533e-033 2.200000e+000
     vertex 7.100000e+000 -1.378177e-033 2.200000e+000
   endloop
 endfacet
 facet normal -1.941095e-034 -1.000000e+000 0.000000e+000
   outer loop
     vertex 6.700000e+000 -1.300533e-033 1.800000e+000
     vertex 6.700000e+000 -1.300533e-033 2.200000e+000
     vertex 6.650000e+000 -1.290828e-033 2.000000e+000
   endloop
 endfacet
 facet normal 1.000000e+000 0.000000e+000 0.000000e+000
   outer loop
     vertex 2.100000e+000 5.000000e-002 2.200000e+000
     vertex 2.100000e+000 -4.076299e-034 2.200000e+000
     vertex 2.100000e+000 -4.076299e-034 1.800000e+000
   endloop
 endfacet
 facet normal 1.000000e+000 0.000000e+000 0.000000e+000
   outer loop
     vertex 2.100000e+000 5.000000e-002 2.200000e+000
     vertex 2.100000e+000 -4.076299e-034 1.800000e+000
     vertex 2.100000e+000 5.000000e-002 1.800000e+000
   endloop
 endfacet
 facet normal -1.000000e+000 0.000000e+000 0.000000e+000
   outer loop
     vertex 0.000000e+000 2.800000e-001 2.580000e+000
     vertex 0.000000e+000 7.030000e+000 0.000000e+000
     vertex 0.000000e+000 2.800000e-001 0.000000e+000
   endloop
 endfacet
 facet normal -1.000000e+000 0.000000e+000 0.000000e+000
   outer loop
     vertex 0.000000e+000 2.800000e-001 2.580000e+000
     vertex 0.000000e+000 7.030000e+000 2.580000e+000
     vertex 0.000000e+000 7.030000e+000 0.000000e+000
   endloop
 endfacet
 facet normal 0.000000e+000 -0.000000e+000 -1.000000e+000
   outer loop
     vertex 4.205000e+000 2.800000e-001 0.000000e+000
     vertex 4.205000e+000 0.000000e+000 0.000000e+000
     vertex 1.700000e-001 0.000000e+000 0.000000e+000
   endloop
 endfacet
 facet normal -0.000000e+000 0.000000e+000 -1.000000e+000
   outer loop
     vertex 4.205000e+000 2.800000e-001 0.000000e+000
     vertex 1.700000e-001 0.000000e+000 0.000000e+000
     vertex 1.700000e-001 2.800000e-001 0.000000e+000
   endloop
 endfacet
 facet normal 0.000000e+000 -0.000000e+000 -1.000000e+000
   outer loop
     vertex 1.700000e-001 7.030000e+000 0.000000e+000
     vertex 1.700000e-001 2.800000e-001 0.000000e+000
     vertex 0.000000e+000 2.800000e-001 0.000000e+000
   endloop
 endfacet
 facet normal -0.000000e+000 0.000000e+000 -1.000000e+000
   outer loop
     vertex 1.700000e-001 7.030000e+000 0.000000e+000
     vertex 0.000000e+000 2.800000e-001 0.000000e+000
     vertex 0.000000e+000 7.030000e+000 0.000000e+000
   endloop
 endfacet
 facet normal 0.000000e+000 0.000000e+000 -1.000000e+000
   outer loop
     vertex 8.890000e+000 -1.725633e-033 0.000000e+000
     vertex 4.685000e+000 0.000000e+000 0.000000e+000
     vertex 4.685000e+000 2.800000e-001 0.000000e+000
   endloop
 endfacet
 facet normal 0.000000e+000 -0.000000e+000 -1.000000e+000
   outer loop
     vertex 4.205000e+000 7.030000e+000 0.000000e+000
     vertex 4.205000e+000 2.800000e-001 0.000000e+000
     vertex 1.700000e-001 2.800000e-001 0.000000e+000
   endloop
 endfacet
 facet normal -0.000000e+000 0.000000e+000 -1.000000e+000
   outer loop
     vertex 4.205000e+000 7.030000e+000 0.000000e+000
     vertex 1.700000e-001 2.800000e-001 0.000000e+000
     vertex 1.700000e-001 7.030000e+000 0.000000e+000
   endloop
 endfacet
 facet normal -0.000000e+000 0.000000e+000 -1.000000e+000
   outer loop
     vertex 4.205000e+000 7.310000e+000 0.000000e+000
     vertex 1.700000e-001 7.030000e+000 0.000000e+000
     vertex 1.700000e-001 7.310000e+000 0.000000e+000
   endloop
 endfacet
 facet normal 0.000000e+000 -0.000000e+000 -1.000000e+000
   outer loop
     vertex 4.205000e+000 7.310000e+000 0.000000e+000
     vertex 4.205000e+000 7.030000e+000 0.000000e+000
     vertex 1.700000e-001 7.030000e+000 0.000000e+000
   endloop
 endfacet
 facet normal 0.000000e+000 -0.000000e+000 -1.000000e+000
   outer loop
     vertex 4.685000e+000 7.030000e+000 0.000000e+000
     vertex 4.685000e+000 2.800000e-001 0.000000e+000
     vertex 4.205000e+000 2.800000e-001 0.000000e+000
   endloop
 endfacet
 facet normal -0.000000e+000 0.000000e+000 -1.000000e+000
   outer loop
     vertex 4.685000e+000 7.030000e+000 0.000000e+000
     vertex 4.205000e+000 2.800000e-001 0.000000e+000
     vertex 4.205000e+000 7.030000e+000 0.000000e+000
   endloop
 endfacet
 facet normal 0.000000e+000 -0.000000e+000 -1.000000e+000
   outer loop
     vertex 8.720000e+000 7.030000e+000 0.000000e+000
     vertex 8.890000e+000 -1.725633e-033 0.000000e+000
     vertex 4.685000e+000 2.800000e-001 0.000000e+000
   endloop
 endfacet
 facet normal -0.000000e+000 0.000000e+000 -1.000000e+000
   outer loop
     vertex 8.720000e+000 7.030000e+000 0.000000e+000
     vertex 4.685000e+000 2.800000e-001 0.000000e+000
     vertex 4.685000e+000 7.030000e+000 0.000000e+000
   endloop
 endfacet
 facet normal -0.000000e+000 -0.000000e+000 -1.000000e+000
   outer loop
     vertex 8.890000e+000 7.030000e+000 0.000000e+000
     vertex 8.890000e+000 -1.725633e-033 0.000000e+000
     vertex 8.720000e+000 7.030000e+000 0.000000e+000
   endloop
 endfacet
 facet normal -0.000000e+000 0.000000e+000 -1.000000e+000
   outer loop
     vertex 8.720000e+000 7.310000e+000 0.000000e+000
     vertex 4.685000e+000 7.030000e+000 0.000000e+000
     vertex 4.685000e+000 7.310000e+000 0.000000e+000
   endloop
 endfacet
 facet normal 0.000000e+000 -0.000000e+000 -1.000000e+000
   outer loop
     vertex 8.720000e+000 7.310000e+000 0.000000e+000
     vertex 8.720000e+000 7.030000e+000 0.000000e+000
     vertex 4.685000e+000 7.030000e+000 0.000000e+000
   endloop
 endfacet
 facet normal 0.000000e+000 0.000000e+000 1.000000e+000
   outer loop
     vertex 4.205000e+000 2.800000e-001 2.580000e+000
     vertex 1.700000e-001 2.800000e-001 2.580000e+000
     vertex 1.700000e-001 0.000000e+000 2.580000e+000
   endloop
 endfacet
 facet normal 0.000000e+000 0.000000e+000 1.000000e+000
   outer loop
     vertex 4.205000e+000 2.800000e-001 2.580000e+000
     vertex 1.700000e-001 0.000000e+000 2.580000e+000
     vertex 4.205000e+000 0.000000e+000 2.580000e+000
   endloop
 endfacet
 facet normal 0.000000e+000 0.000000e+000 1.000000e+000
   outer loop
     vertex 1.700000e-001 7.030000e+000 2.580000e+000
     vertex 0.000000e+000 7.030000e+000 2.580000e+000
     vertex 0.000000e+000 2.800000e-001 2.580000e+000
   endloop
 endfacet
 facet normal 0.000000e+000 0.000000e+000 1.000000e+000
   outer loop
     vertex 1.700000e-001 7.030000e+000 2.580000e+000
     vertex 0.000000e+000 2.800000e-001 2.580000e+000
     vertex 1.700000e-001 2.800000e-001 2.580000e+000
   endloop
 endfacet
 facet normal 0.000000e+000 0.000000e+000 1.000000e+000
   outer loop
     vertex 8.890000e+000 0.000000e+000 2.580000e+000
     vertex 4.685000e+000 2.800000e-001 2.580000e+000
     vertex 4.685000e+000 0.000000e+000 2.580000e+000
   endloop
 endfacet
 facet normal 0.000000e+000 0.000000e+000 1.000000e+000
   outer loop
     vertex 4.205000e+000 7.030000e+000 2.580000e+000
     vertex 1.700000e-001 7.030000e+000 2.580000e+000
     vertex 1.700000e-001 2.800000e-001 2.580000e+000
   endloop
 endfacet
 facet normal 0.000000e+000 0.000000e+000 1.000000e+000
   outer loop
     vertex 4.205000e+000 7.030000e+000 2.580000e+000
     vertex 1.700000e-001 2.800000e-001 2.580000e+000
     vertex 4.205000e+000 2.800000e-001 2.580000e+000
   endloop
 endfacet
 facet normal 0.000000e+000 0.000000e+000 1.000000e+000
   outer loop
     vertex 4.205000e+000 7.310000e+000 2.580000e+000
     vertex 1.700000e-001 7.310000e+000 2.580000e+000
     vertex 1.700000e-001 7.030000e+000 2.580000e+000
   endloop
 endfacet
 facet normal 0.000000e+000 0.000000e+000 1.000000e+000
   outer loop
     vertex 4.205000e+000 7.310000e+000 2.580000e+000
     vertex 1.700000e-001 7.030000e+000 2.580000e+000
     vertex 4.205000e+000 7.030000e+000 2.580000e+000
   endloop
 endfacet
 facet normal 0.000000e+000 0.000000e+000 1.000000e+000
   outer loop
     vertex 4.685000e+000 7.030000e+000 2.580000e+000
     vertex 4.205000e+000 2.800000e-001 2.580000e+000
     vertex 4.685000e+000 2.800000e-001 2.580000e+000
   endloop
 endfacet
 facet normal 0.000000e+000 0.000000e+000 1.000000e+000
   outer loop
     vertex 4.685000e+000 7.030000e+000 2.580000e+000
     vertex 4.205000e+000 7.030000e+000 2.580000e+000
     vertex 4.205000e+000 2.800000e-001 2.580000e+000
   endloop
 endfacet
 facet normal 0.000000e+000 0.000000e+000 1.000000e+000
   outer loop
     vertex 8.720000e+000 7.030000e+000 2.580000e+000
     vertex 4.685000e+000 7.030000e+000 2.580000e+000
     vertex 4.685000e+000 2.800000e-001 2.580000e+000
   endloop
 endfacet
 facet normal 0.000000e+000 0.000000e+000 1.000000e+000
   outer loop
     vertex 8.720000e+000 7.030000e+000 2.580000e+000
     vertex 4.685000e+000 2.800000e-001 2.580000e+000
     vertex 8.890000e+000 0.000000e+000 2.580000e+000
   endloop
 endfacet
 facet normal 0.000000e+000 0.000000e+000 1.000000e+000
   outer loop
     vertex 8.890000e+000 7.030000e+000 2.580000e+000
     vertex 8.720000e+000 7.030000e+000 2.580000e+000
     vertex 8.890000e+000 0.000000e+000 2.580000e+000
   endloop
 endfacet
 facet normal 0.000000e+000 0.000000e+000 1.000000e+000
   outer loop
     vertex 8.720000e+000 7.310000e+000 2.580000e+000
     vertex 4.685000e+000 7.310000e+000 2.580000e+000
     vertex 4.685000e+000 7.030000e+000 2.580000e+000
   endloop
 endfacet
 facet normal 0.000000e+000 0.000000e+000 1.000000e+000
   outer loop
     vertex 8.720000e+000 7.310000e+000 2.580000e+000
     vertex 4.685000e+000 7.030000e+000 2.580000e+000
     vertex 8.720000e+000 7.030000e+000 2.580000e+000
   endloop
 endfacet
 facet normal 0.000000e+000 -1.000000e+000 -0.000000e+000
   outer loop
     vertex 7.100000e+000 5.000000e-002 2.200000e+000
     vertex 6.700000e+000 5.000000e-002 1.800000e+000
     vertex 7.100000e+000 5.000000e-002 1.800000e+000
   endloop
 endfacet
 facet normal -0.000000e+000 -1.000000e+000 0.000000e+000
   outer loop
     vertex 7.100000e+000 5.000000e-002 2.200000e+000
     vertex 6.700000e+000 5.000000e-002 2.200000e+000
     vertex 6.700000e+000 5.000000e-002 1.800000e+000
   endloop
 endfacet
 facet normal 0.000000e+000 1.000000e+000 0.000000e+000
   outer loop
     vertex 4.205000e+000 7.030000e+000 2.580000e+000
     vertex 4.685000e+000 7.030000e+000 0.000000e+000
     vertex 4.205000e+000 7.030000e+000 0.000000e+000
   endloop
 endfacet
 facet normal -0.000000e+000 1.000000e+000 0.000000e+000
   outer loop
     vertex 4.205000e+000 7.030000e+000 2.580000e+000
     vertex 4.685000e+000 7.030000e+000 2.580000e+000
     vertex 4.685000e+000 7.030000e+000 0.000000e+000
   endloop
 endfacet
 facet normal 0.000000e+000 -1.000000e+000 -0.000000e+000
   outer loop
     vertex 1.700000e-001 2.800000e-001 2.580000e+000
     vertex 0.000000e+000 2.800000e-001 0.000000e+000
     vertex 1.700000e-001 2.800000e-001 0.000000e+000
   endloop
 endfacet
 facet normal -0.000000e+000 -1.000000e+000 0.000000e+000
   outer loop
     vertex 1.700000e-001 2.800000e-001 2.580000e+000
     vertex 0.000000e+000 2.800000e-001 2.580000e+000
     vertex 0.000000e+000 2.800000e-001 0.000000e+000
   endloop
 endfacet
 facet normal -1.000000e+000 0.000000e+000 0.000000e+000
   outer loop
     vertex 1.700000e-001 7.030000e+000 2.580000e+000
     vertex 1.700000e-001 7.310000e+000 0.000000e+000
     vertex 1.700000e-001 7.030000e+000 0.000000e+000
   endloop
 endfacet
 facet normal -1.000000e+000 0.000000e+000 0.000000e+000
   outer loop
     vertex 1.700000e-001 7.030000e+000 2.580000e+000
     vertex 1.700000e-001 7.310000e+000 2.580000e+000
     vertex 1.700000e-001 7.310000e+000 0.000000e+000
   endloop
 endfacet
 facet normal 0.000000e+000 -0.000000e+000 -1.000000e+000
   outer loop
     vertex 7.100000e+000 5.000000e-002 2.200000e+000
     vertex 7.100000e+000 -1.378177e-033 2.200000e+000
     vertex 6.700000e+000 -1.300533e-033 2.200000e+000
   endloop
 endfacet
 facet normal -0.000000e+000 0.000000e+000 -1.000000e+000
   outer loop
     vertex 7.100000e+000 5.000000e-002 2.200000e+000
     vertex 6.700000e+000 -1.300533e-033 2.200000e+000
     vertex 6.700000e+000 5.000000e-002 2.200000e+000
   endloop
 endfacet
 facet normal 1.000000e+000 0.000000e+000 0.000000e+000
   outer loop
     vertex 4.205000e+000 2.800000e-001 2.580000e+000
     vertex 4.205000e+000 0.000000e+000 0.000000e+000
     vertex 4.205000e+000 2.800000e-001 0.000000e+000
   endloop
 endfacet
 facet normal 1.000000e+000 0.000000e+000 0.000000e+000
   outer loop
     vertex 4.205000e+000 2.800000e-001 2.580000e+000
     vertex 4.205000e+000 0.000000e+000 2.580000e+000
     vertex 4.205000e+000 0.000000e+000 0.000000e+000
   endloop
 endfacet
 facet normal -1.000000e+000 0.000000e+000 0.000000e+000
   outer loop
     vertex 4.685000e+000 7.030000e+000 2.580000e+000
     vertex 4.685000e+000 7.310000e+000 0.000000e+000
     vertex 4.685000e+000 7.030000e+000 0.000000e+000
   endloop
 endfacet
 facet normal -1.000000e+000 0.000000e+000 0.000000e+000
   outer loop
     vertex 4.685000e+000 7.030000e+000 2.580000e+000
     vertex 4.685000e+000 7.310000e+000 2.580000e+000
     vertex 4.685000e+000 7.310000e+000 0.000000e+000
   endloop
 endfacet
 facet normal 0.000000e+000 -1.000000e+000 -0.000000e+000
   outer loop
     vertex 4.685000e+000 2.800000e-001 2.580000e+000
     vertex 4.205000e+000 2.800000e-001 0.000000e+000
     vertex 4.685000e+000 2.800000e-001 0.000000e+000
   endloop
 endfacet
 facet normal -0.000000e+000 -1.000000e+000 0.000000e+000
   outer loop
     vertex 4.685000e+000 2.800000e-001 2.580000e+000
     vertex 4.205000e+000 2.800000e-001 2.580000e+000
     vertex 4.205000e+000 2.800000e-001 0.000000e+000
   endloop
 endfacet
 facet normal 1.000000e+000 0.000000e+000 0.000000e+000
   outer loop
     vertex 6.700000e+000 5.000000e-002 2.200000e+000
     vertex 6.700000e+000 -1.300533e-033 2.200000e+000
     vertex 6.700000e+000 -1.300533e-033 1.800000e+000
   endloop
 endfacet
 facet normal 1.000000e+000 0.000000e+000 0.000000e+000
   outer loop
     vertex 6.700000e+000 5.000000e-002 2.200000e+000
     vertex 6.700000e+000 -1.300533e-033 1.800000e+000
     vertex 6.700000e+000 5.000000e-002 1.800000e+000
   endloop
 endfacet
 facet normal -1.000000e+000 0.000000e+000 0.000000e+000
   outer loop
     vertex 6.650000e+000 5.000000e-002 2.000000e+000
     vertex 6.650000e+000 -1.290828e-033 2.000000e+000
     vertex 6.650000e+000 -1.290828e-033 2.200000e+000
   endloop
 endfacet
 facet normal -1.000000e+000 0.000000e+000 0.000000e+000
   outer loop
     vertex 6.650000e+000 5.000000e-002 2.000000e+000
     vertex 6.650000e+000 -1.290828e-033 2.200000e+000
     vertex 6.650000e+000 5.000000e-002 2.200000e+000
   endloop
 endfacet
 facet normal 0.000000e+000 -1.000000e+000 -0.000000e+000
   outer loop
     vertex 2.500000e+000 5.000000e-002 2.200000e+000
     vertex 2.100000e+000 5.000000e-002 1.800000e+000
     vertex 2.500000e+000 5.000000e-002 1.800000e+000
   endloop
 endfacet
 facet normal -0.000000e+000 -1.000000e+000 0.000000e+000
   outer loop
     vertex 2.500000e+000 5.000000e-002 2.200000e+000
     vertex 2.100000e+000 5.000000e-002 2.200000e+000
     vertex 2.100000e+000 5.000000e-002 1.800000e+000
   endloop
 endfacet
 facet normal -1.000000e+000 0.000000e+000 0.000000e+000
   outer loop
     vertex 1.700000e-001 0.000000e+000 2.580000e+000
     vertex 1.700000e-001 2.800000e-001 0.000000e+000
     vertex 1.700000e-001 0.000000e+000 0.000000e+000
   endloop
 endfacet
 facet normal -1.000000e+000 0.000000e+000 0.000000e+000
   outer loop
     vertex 1.700000e-001 0.000000e+000 2.580000e+000
     vertex 1.700000e-001 2.800000e-001 2.580000e+000
     vertex 1.700000e-001 2.800000e-001 0.000000e+000
   endloop
 endfacet
 facet normal -2.131838e-034 -1.000000e+000 0.000000e+000
   outer loop
     vertex 1.900000e+000 -3.688080e-034 2.000000e+000
     vertex 1.700000e-001 0.000000e+000 2.580000e+000
     vertex 1.700000e-001 0.000000e+000 0.000000e+000
   endloop
 endfacet
 facet normal -2.029563e-034 -1.000000e+000 -8.846813e-036
   outer loop
     vertex 1.900000e+000 -3.688080e-034 2.000000e+000
     vertex 1.700000e-001 0.000000e+000 0.000000e+000
     vertex 2.100000e+000 -4.076299e-034 1.800000e+000
   endloop
 endfacet
 facet normal -1.941095e-034 -1.000000e+000 1.208312e-048
   outer loop
     vertex 2.050000e+000 -3.979244e-034 2.000000e+000
     vertex 1.900000e+000 -3.688080e-034 2.000000e+000
     vertex 2.100000e+000 -4.076299e-034 1.800000e+000
   endloop
 endfacet
 facet normal -2.131838e-034 -1.000000e+000 -0.000000e+000
   outer loop
     vertex 1.900000e+000 -3.688080e-034 2.200000e+000
     vertex 1.700000e-001 0.000000e+000 2.580000e+000
     vertex 1.900000e+000 -3.688080e-034 2.000000e+000
   endloop
 endfacet
 facet normal -0.000000e+000 -1.000000e+000 -2.264611e-034
   outer loop
     vertex 4.205000e+000 0.000000e+000 0.000000e+000
     vertex 2.100000e+000 -4.076299e-034 1.800000e+000
     vertex 1.700000e-001 0.000000e+000 0.000000e+000
   endloop
 endfacet
 facet normal -1.941095e-034 -1.000000e+000 0.000000e+000
   outer loop
     vertex 2.100000e+000 -4.076299e-034 2.200000e+000
     vertex 2.050000e+000 -3.979244e-034 2.200000e+000
     vertex 2.050000e+000 -3.979244e-034 2.000000e+000
   endloop
 endfacet
 facet normal -1.941095e-034 -1.000000e+000 -4.534613e-034
   outer loop
     vertex 2.500000e+000 -4.852737e-034 1.800000e+000
     vertex 2.100000e+000 -4.076299e-034 1.800000e+000
     vertex 4.205000e+000 0.000000e+000 0.000000e+000
   endloop
 endfacet
 facet normal 2.846180e-034 -1.000000e+000 0.000000e+000
   outer loop
     vertex 4.205000e+000 0.000000e+000 2.580000e+000
     vertex 2.500000e+000 -4.852737e-034 2.200000e+000
     vertex 2.500000e+000 -4.852737e-034 1.800000e+000
   endloop
 endfacet
 facet normal 2.846180e-034 -1.000000e+000 0.000000e+000
   outer loop
     vertex 4.205000e+000 0.000000e+000 2.580000e+000
     vertex 2.500000e+000 -4.852737e-034 1.800000e+000
     vertex 4.205000e+000 0.000000e+000 0.000000e+000
   endloop
 endfacet
 facet normal 0.000000e+000 -1.000000e+000 9.705474e-034
   outer loop
     vertex 4.205000e+000 0.000000e+000 2.580000e+000
     vertex 1.700000e-001 0.000000e+000 2.580000e+000
     vertex 1.900000e+000 -3.688080e-034 2.200000e+000
   endloop
 endfacet
 facet normal -1.941095e-034 -1.000000e+000 2.147975e-033
   outer loop
     vertex 4.205000e+000 0.000000e+000 2.580000e+000
     vertex 1.900000e+000 -3.688080e-034 2.200000e+000
     vertex 2.050000e+000 -3.979244e-034 2.200000e+000
   endloop
 endfacet
 facet normal -1.941095e-034 -1.000000e+000 2.147975e-033
   outer loop
     vertex 4.205000e+000 0.000000e+000 2.580000e+000
     vertex 2.050000e+000 -3.979244e-034 2.200000e+000
     vertex 2.100000e+000 -4.076299e-034 2.200000e+000
   endloop
 endfacet
 facet normal -1.941095e-034 -1.000000e+000 2.147975e-033
   outer loop
     vertex 4.205000e+000 0.000000e+000 2.580000e+000
     vertex 2.100000e+000 -4.076299e-034 2.200000e+000
     vertex 2.500000e+000 -4.852737e-034 2.200000e+000
   endloop
 endfacet
 facet normal -1.941095e-034 -1.000000e+000 0.000000e+000
   outer loop
     vertex 2.100000e+000 -4.076299e-034 1.800000e+000
     vertex 2.100000e+000 -4.076299e-034 2.200000e+000
     vertex 2.050000e+000 -3.979244e-034 2.000000e+000
   endloop
 endfacet
 facet normal 0.000000e+000 -0.000000e+000 -1.000000e+000
   outer loop
     vertex 2.500000e+000 5.000000e-002 2.200000e+000
     vertex 2.500000e+000 -4.852737e-034 2.200000e+000
     vertex 2.100000e+000 -4.076299e-034 2.200000e+000
   endloop
 endfacet
 facet normal -0.000000e+000 0.000000e+000 -1.000000e+000
   outer loop
     vertex 2.500000e+000 5.000000e-002 2.200000e+000
     vertex 2.100000e+000 -4.076299e-034 2.200000e+000
     vertex 2.100000e+000 5.000000e-002 2.200000e+000
   endloop
 endfacet
 facet normal -1.000000e+000 0.000000e+000 0.000000e+000
   outer loop
     vertex 7.100000e+000 5.000000e-002 1.800000e+000
     vertex 7.100000e+000 -1.378177e-033 1.800000e+000
     vertex 7.100000e+000 -1.378177e-033 2.200000e+000
   endloop
 endfacet
 facet normal -1.000000e+000 0.000000e+000 0.000000e+000
   outer loop
     vertex 7.100000e+000 5.000000e-002 1.800000e+000
     vertex 7.100000e+000 -1.378177e-033 2.200000e+000
     vertex 7.100000e+000 5.000000e-002 2.200000e+000
   endloop
 endfacet
endsolid walls
