solid topFanInlets, STL ascii file, created with Open CASCADE Technology
 facet normal 0.000000e+000 0.000000e+000 1.000000e+000
   outer loop
     vertex 6.629036e+000 1.354347e+000 2.480000e+000
     vertex 6.584036e+000 1.399347e+000 2.480000e+000
     vertex 6.584036e+000 1.354347e+000 2.480000e+000
   endloop
 endfacet
 facet normal 0.000000e+000 0.000000e+000 1.000000e+000
   outer loop
     vertex 6.629036e+000 1.354347e+000 2.480000e+000
     vertex 6.629036e+000 1.309347e+000 2.480000e+000
     vertex 6.674036e+000 1.309347e+000 2.480000e+000
   endloop
 endfacet
 facet normal 0.000000e+000 0.000000e+000 1.000000e+000
   outer loop
     vertex 6.584036e+000 1.579347e+000 2.480000e+000
     vertex 6.539036e+000 1.579347e+000 2.480000e+000
     vertex 6.539036e+000 1.399347e+000 2.480000e+000
   endloop
 endfacet
 facet normal 0.000000e+000 0.000000e+000 1.000000e+000
   outer loop
     vertex 6.584036e+000 1.579347e+000 2.480000e+000
     vertex 6.539036e+000 1.399347e+000 2.480000e+000
     vertex 6.584036e+000 1.399347e+000 2.480000e+000
   endloop
 endfacet
 facet normal 0.000000e+000 0.000000e+000 1.000000e+000
   outer loop
     vertex 6.584036e+000 1.579347e+000 2.480000e+000
     vertex 6.584036e+000 1.399347e+000 2.480000e+000
     vertex 6.629036e+000 1.354347e+000 2.480000e+000
   endloop
 endfacet
 facet normal 0.000000e+000 0.000000e+000 1.000000e+000
   outer loop
     vertex 6.854036e+000 1.309347e+000 2.480000e+000
     vertex 6.674036e+000 1.309347e+000 2.480000e+000
     vertex 6.674036e+000 1.264347e+000 2.480000e+000
   endloop
 endfacet
 facet normal 0.000000e+000 0.000000e+000 1.000000e+000
   outer loop
     vertex 6.854036e+000 1.309347e+000 2.480000e+000
     vertex 6.674036e+000 1.264347e+000 2.480000e+000
     vertex 6.854036e+000 1.264347e+000 2.480000e+000
   endloop
 endfacet
 facet normal 0.000000e+000 0.000000e+000 1.000000e+000
   outer loop
     vertex 6.629036e+000 1.624347e+000 2.480000e+000
     vertex 6.584036e+000 1.624347e+000 2.480000e+000
     vertex 6.584036e+000 1.579347e+000 2.480000e+000
   endloop
 endfacet
 facet normal 0.000000e+000 0.000000e+000 1.000000e+000
   outer loop
     vertex 6.629036e+000 1.624347e+000 2.480000e+000
     vertex 6.584036e+000 1.579347e+000 2.480000e+000
     vertex 6.629036e+000 1.354347e+000 2.480000e+000
   endloop
 endfacet
 facet normal 0.000000e+000 0.000000e+000 1.000000e+000
   outer loop
     vertex 6.899036e+000 1.354347e+000 2.480000e+000
     vertex 6.854036e+000 1.309347e+000 2.480000e+000
     vertex 6.899036e+000 1.309347e+000 2.480000e+000
   endloop
 endfacet
 facet normal 0.000000e+000 0.000000e+000 1.000000e+000
   outer loop
     vertex 6.899036e+000 1.354347e+000 2.480000e+000
     vertex 6.674036e+000 1.309347e+000 2.480000e+000
     vertex 6.854036e+000 1.309347e+000 2.480000e+000
   endloop
 endfacet
 facet normal 0.000000e+000 0.000000e+000 1.000000e+000
   outer loop
     vertex 6.899036e+000 1.354347e+000 2.480000e+000
     vertex 6.629036e+000 1.354347e+000 2.480000e+000
     vertex 6.674036e+000 1.309347e+000 2.480000e+000
   endloop
 endfacet
 facet normal 0.000000e+000 0.000000e+000 1.000000e+000
   outer loop
     vertex 6.674036e+000 1.669347e+000 2.480000e+000
     vertex 6.629036e+000 1.669347e+000 2.480000e+000
     vertex 6.629036e+000 1.624347e+000 2.480000e+000
   endloop
 endfacet
 facet normal 0.000000e+000 0.000000e+000 1.000000e+000
   outer loop
     vertex 6.944036e+000 1.399347e+000 2.480000e+000
     vertex 6.899036e+000 1.354347e+000 2.480000e+000
     vertex 6.944036e+000 1.354347e+000 2.480000e+000
   endloop
 endfacet
 facet normal 0.000000e+000 0.000000e+000 1.000000e+000
   outer loop
     vertex 6.944036e+000 1.579347e+000 2.480000e+000
     vertex 6.899036e+000 1.354347e+000 2.480000e+000
     vertex 6.944036e+000 1.399347e+000 2.480000e+000
   endloop
 endfacet
 facet normal 0.000000e+000 0.000000e+000 1.000000e+000
   outer loop
     vertex 6.899036e+000 1.624347e+000 2.480000e+000
     vertex 6.629036e+000 1.624347e+000 2.480000e+000
     vertex 6.629036e+000 1.354347e+000 2.480000e+000
   endloop
 endfacet
 facet normal 0.000000e+000 0.000000e+000 1.000000e+000
   outer loop
     vertex 6.899036e+000 1.624347e+000 2.480000e+000
     vertex 6.629036e+000 1.354347e+000 2.480000e+000
     vertex 6.899036e+000 1.354347e+000 2.480000e+000
   endloop
 endfacet
 facet normal 0.000000e+000 0.000000e+000 1.000000e+000
   outer loop
     vertex 6.899036e+000 1.624347e+000 2.480000e+000
     vertex 6.674036e+000 1.669347e+000 2.480000e+000
     vertex 6.629036e+000 1.624347e+000 2.480000e+000
   endloop
 endfacet
 facet normal 0.000000e+000 0.000000e+000 1.000000e+000
   outer loop
     vertex 6.899036e+000 1.624347e+000 2.480000e+000
     vertex 6.899036e+000 1.354347e+000 2.480000e+000
     vertex 6.944036e+000 1.579347e+000 2.480000e+000
   endloop
 endfacet
 facet normal 0.000000e+000 0.000000e+000 1.000000e+000
   outer loop
     vertex 6.854036e+000 1.669347e+000 2.480000e+000
     vertex 6.674036e+000 1.669347e+000 2.480000e+000
     vertex 6.899036e+000 1.624347e+000 2.480000e+000
   endloop
 endfacet
 facet normal 0.000000e+000 0.000000e+000 1.000000e+000
   outer loop
     vertex 6.989036e+000 1.579347e+000 2.480000e+000
     vertex 6.944036e+000 1.399347e+000 2.480000e+000
     vertex 6.989036e+000 1.399347e+000 2.480000e+000
   endloop
 endfacet
 facet normal 0.000000e+000 0.000000e+000 1.000000e+000
   outer loop
     vertex 6.989036e+000 1.579347e+000 2.480000e+000
     vertex 6.944036e+000 1.579347e+000 2.480000e+000
     vertex 6.944036e+000 1.399347e+000 2.480000e+000
   endloop
 endfacet
 facet normal 0.000000e+000 0.000000e+000 1.000000e+000
   outer loop
     vertex 6.899036e+000 1.669347e+000 2.480000e+000
     vertex 6.854036e+000 1.669347e+000 2.480000e+000
     vertex 6.899036e+000 1.624347e+000 2.480000e+000
   endloop
 endfacet
 facet normal 0.000000e+000 0.000000e+000 1.000000e+000
   outer loop
     vertex 6.944036e+000 1.624347e+000 2.480000e+000
     vertex 6.899036e+000 1.624347e+000 2.480000e+000
     vertex 6.944036e+000 1.579347e+000 2.480000e+000
   endloop
 endfacet
 facet normal 0.000000e+000 0.000000e+000 1.000000e+000
   outer loop
     vertex 6.854036e+000 1.714347e+000 2.480000e+000
     vertex 6.674036e+000 1.714347e+000 2.480000e+000
     vertex 6.674036e+000 1.669347e+000 2.480000e+000
   endloop
 endfacet
 facet normal 0.000000e+000 0.000000e+000 1.000000e+000
   outer loop
     vertex 6.854036e+000 1.714347e+000 2.480000e+000
     vertex 6.674036e+000 1.669347e+000 2.480000e+000
     vertex 6.854036e+000 1.669347e+000 2.480000e+000
   endloop
 endfacet
 facet normal 0.000000e+000 0.000000e+000 1.000000e+000
   outer loop
     vertex 2.078853e+000 1.313486e+000 2.480000e+000
     vertex 2.033853e+000 1.358486e+000 2.480000e+000
     vertex 2.033853e+000 1.313486e+000 2.480000e+000
   endloop
 endfacet
 facet normal 0.000000e+000 0.000000e+000 1.000000e+000
   outer loop
     vertex 1.988853e+000 1.403486e+000 2.480000e+000
     vertex 1.988853e+000 1.358486e+000 2.480000e+000
     vertex 2.033853e+000 1.358486e+000 2.480000e+000
   endloop
 endfacet
 facet normal 0.000000e+000 0.000000e+000 1.000000e+000
   outer loop
     vertex 2.258853e+000 1.313486e+000 2.480000e+000
     vertex 2.078853e+000 1.313486e+000 2.480000e+000
     vertex 2.078853e+000 1.268486e+000 2.480000e+000
   endloop
 endfacet
 facet normal 0.000000e+000 0.000000e+000 1.000000e+000
   outer loop
     vertex 2.258853e+000 1.313486e+000 2.480000e+000
     vertex 2.078853e+000 1.268486e+000 2.480000e+000
     vertex 2.258853e+000 1.268486e+000 2.480000e+000
   endloop
 endfacet
 facet normal 0.000000e+000 0.000000e+000 1.000000e+000
   outer loop
     vertex 1.988853e+000 1.583486e+000 2.480000e+000
     vertex 1.943853e+000 1.583486e+000 2.480000e+000
     vertex 1.943853e+000 1.403486e+000 2.480000e+000
   endloop
 endfacet
 facet normal 0.000000e+000 0.000000e+000 1.000000e+000
   outer loop
     vertex 1.988853e+000 1.583486e+000 2.480000e+000
     vertex 1.943853e+000 1.403486e+000 2.480000e+000
     vertex 1.988853e+000 1.403486e+000 2.480000e+000
   endloop
 endfacet
 facet normal 0.000000e+000 0.000000e+000 1.000000e+000
   outer loop
     vertex 2.303853e+000 1.358486e+000 2.480000e+000
     vertex 2.258853e+000 1.313486e+000 2.480000e+000
     vertex 2.303853e+000 1.313486e+000 2.480000e+000
   endloop
 endfacet
 facet normal 0.000000e+000 0.000000e+000 1.000000e+000
   outer loop
     vertex 2.303853e+000 1.358486e+000 2.480000e+000
     vertex 2.078853e+000 1.313486e+000 2.480000e+000
     vertex 2.258853e+000 1.313486e+000 2.480000e+000
   endloop
 endfacet
 facet normal 0.000000e+000 0.000000e+000 1.000000e+000
   outer loop
     vertex 2.303853e+000 1.358486e+000 2.480000e+000
     vertex 2.033853e+000 1.358486e+000 2.480000e+000
     vertex 2.078853e+000 1.313486e+000 2.480000e+000
   endloop
 endfacet
 facet normal 0.000000e+000 0.000000e+000 1.000000e+000
   outer loop
     vertex 2.033853e+000 1.628486e+000 2.480000e+000
     vertex 1.988853e+000 1.628486e+000 2.480000e+000
     vertex 1.988853e+000 1.583486e+000 2.480000e+000
   endloop
 endfacet
 facet normal 0.000000e+000 0.000000e+000 1.000000e+000
   outer loop
     vertex 2.033853e+000 1.628486e+000 2.480000e+000
     vertex 1.988853e+000 1.403486e+000 2.480000e+000
     vertex 2.033853e+000 1.358486e+000 2.480000e+000
   endloop
 endfacet
 facet normal 0.000000e+000 0.000000e+000 1.000000e+000
   outer loop
     vertex 2.033853e+000 1.628486e+000 2.480000e+000
     vertex 1.988853e+000 1.583486e+000 2.480000e+000
     vertex 1.988853e+000 1.403486e+000 2.480000e+000
   endloop
 endfacet
 facet normal 0.000000e+000 0.000000e+000 1.000000e+000
   outer loop
     vertex 2.078853e+000 1.673486e+000 2.480000e+000
     vertex 2.033853e+000 1.673486e+000 2.480000e+000
     vertex 2.033853e+000 1.628486e+000 2.480000e+000
   endloop
 endfacet
 facet normal 0.000000e+000 0.000000e+000 1.000000e+000
   outer loop
     vertex 2.348853e+000 1.403486e+000 2.480000e+000
     vertex 2.303853e+000 1.358486e+000 2.480000e+000
     vertex 2.348853e+000 1.358486e+000 2.480000e+000
   endloop
 endfacet
 facet normal 0.000000e+000 0.000000e+000 1.000000e+000
   outer loop
     vertex 2.303853e+000 1.628486e+000 2.480000e+000
     vertex 2.033853e+000 1.628486e+000 2.480000e+000
     vertex 2.033853e+000 1.358486e+000 2.480000e+000
   endloop
 endfacet
 facet normal 0.000000e+000 0.000000e+000 1.000000e+000
   outer loop
     vertex 2.303853e+000 1.628486e+000 2.480000e+000
     vertex 2.033853e+000 1.358486e+000 2.480000e+000
     vertex 2.303853e+000 1.358486e+000 2.480000e+000
   endloop
 endfacet
 facet normal 0.000000e+000 0.000000e+000 1.000000e+000
   outer loop
     vertex 2.303853e+000 1.628486e+000 2.480000e+000
     vertex 2.078853e+000 1.673486e+000 2.480000e+000
     vertex 2.033853e+000 1.628486e+000 2.480000e+000
   endloop
 endfacet
 facet normal 0.000000e+000 0.000000e+000 1.000000e+000
   outer loop
     vertex 2.303853e+000 1.628486e+000 2.480000e+000
     vertex 2.258853e+000 1.673486e+000 2.480000e+000
     vertex 2.078853e+000 1.673486e+000 2.480000e+000
   endloop
 endfacet
 facet normal 0.000000e+000 0.000000e+000 1.000000e+000
   outer loop
     vertex 2.348853e+000 1.583486e+000 2.480000e+000
     vertex 2.303853e+000 1.358486e+000 2.480000e+000
     vertex 2.348853e+000 1.403486e+000 2.480000e+000
   endloop
 endfacet
 facet normal 0.000000e+000 0.000000e+000 1.000000e+000
   outer loop
     vertex 2.348853e+000 1.583486e+000 2.480000e+000
     vertex 2.303853e+000 1.628486e+000 2.480000e+000
     vertex 2.303853e+000 1.358486e+000 2.480000e+000
   endloop
 endfacet
 facet normal 0.000000e+000 0.000000e+000 1.000000e+000
   outer loop
     vertex 2.258853e+000 1.718486e+000 2.480000e+000
     vertex 2.078853e+000 1.718486e+000 2.480000e+000
     vertex 2.078853e+000 1.673486e+000 2.480000e+000
   endloop
 endfacet
 facet normal 0.000000e+000 0.000000e+000 1.000000e+000
   outer loop
     vertex 2.258853e+000 1.718486e+000 2.480000e+000
     vertex 2.078853e+000 1.673486e+000 2.480000e+000
     vertex 2.258853e+000 1.673486e+000 2.480000e+000
   endloop
 endfacet
 facet normal 0.000000e+000 0.000000e+000 1.000000e+000
   outer loop
     vertex 2.303853e+000 1.673486e+000 2.480000e+000
     vertex 2.258853e+000 1.673486e+000 2.480000e+000
     vertex 2.303853e+000 1.628486e+000 2.480000e+000
   endloop
 endfacet
 facet normal 0.000000e+000 0.000000e+000 1.000000e+000
   outer loop
     vertex 2.393853e+000 1.583486e+000 2.480000e+000
     vertex 2.348853e+000 1.403486e+000 2.480000e+000
     vertex 2.393853e+000 1.403486e+000 2.480000e+000
   endloop
 endfacet
 facet normal 0.000000e+000 0.000000e+000 1.000000e+000
   outer loop
     vertex 2.393853e+000 1.583486e+000 2.480000e+000
     vertex 2.348853e+000 1.583486e+000 2.480000e+000
     vertex 2.348853e+000 1.403486e+000 2.480000e+000
   endloop
 endfacet
 facet normal 0.000000e+000 0.000000e+000 1.000000e+000
   outer loop
     vertex 2.348853e+000 1.628486e+000 2.480000e+000
     vertex 2.303853e+000 1.628486e+000 2.480000e+000
     vertex 2.348853e+000 1.583486e+000 2.480000e+000
   endloop
 endfacet
endsolid topFanInlets
