solid wallFanInlet2, STL ascii file, created with Open CASCADE Technology
 facet normal 0.000000e+000 -1.000000e+000 0.000000e+000
   outer loop
     vertex 5.275000e+000 1.000000e-001 1.885000e+000
     vertex 5.230000e+000 1.000000e-001 1.930000e+000
     vertex 5.230000e+000 1.000000e-001 1.885000e+000
   endloop
 endfacet
 facet normal 0.000000e+000 -1.000000e+000 0.000000e+000
   outer loop
     vertex 5.320000e+000 1.000000e-001 1.840000e+000
     vertex 5.275000e+000 1.000000e-001 1.885000e+000
     vertex 5.275000e+000 1.000000e-001 1.840000e+000
   endloop
 endfacet
 facet normal -0.000000e+000 -1.000000e+000 0.000000e+000
   outer loop
     vertex 5.230000e+000 1.000000e-001 2.110000e+000
     vertex 5.185000e+000 1.000000e-001 2.110000e+000
     vertex 5.185000e+000 1.000000e-001 1.930000e+000
   endloop
 endfacet
 facet normal 0.000000e+000 -1.000000e+000 -0.000000e+000
   outer loop
     vertex 5.230000e+000 1.000000e-001 2.110000e+000
     vertex 5.185000e+000 1.000000e-001 1.930000e+000
     vertex 5.230000e+000 1.000000e-001 1.930000e+000
   endloop
 endfacet
 facet normal -0.000000e+000 -1.000000e+000 0.000000e+000
   outer loop
     vertex 5.500000e+000 1.000000e-001 1.840000e+000
     vertex 5.320000e+000 1.000000e-001 1.840000e+000
     vertex 5.320000e+000 1.000000e-001 1.795000e+000
   endloop
 endfacet
 facet normal 0.000000e+000 -1.000000e+000 -0.000000e+000
   outer loop
     vertex 5.500000e+000 1.000000e-001 1.840000e+000
     vertex 5.320000e+000 1.000000e-001 1.795000e+000
     vertex 5.500000e+000 1.000000e-001 1.795000e+000
   endloop
 endfacet
 facet normal 0.000000e+000 -1.000000e+000 -0.000000e+000
   outer loop
     vertex 5.545000e+000 1.000000e-001 1.885000e+000
     vertex 5.500000e+000 1.000000e-001 1.840000e+000
     vertex 5.545000e+000 1.000000e-001 1.840000e+000
   endloop
 endfacet
 facet normal 0.000000e+000 -1.000000e+000 0.000000e+000
   outer loop
     vertex 5.545000e+000 1.000000e-001 1.885000e+000
     vertex 5.320000e+000 1.000000e-001 1.840000e+000
     vertex 5.500000e+000 1.000000e-001 1.840000e+000
   endloop
 endfacet
 facet normal -0.000000e+000 -1.000000e+000 0.000000e+000
   outer loop
     vertex 5.545000e+000 1.000000e-001 1.885000e+000
     vertex 5.275000e+000 1.000000e-001 1.885000e+000
     vertex 5.320000e+000 1.000000e-001 1.840000e+000
   endloop
 endfacet
 facet normal -0.000000e+000 -1.000000e+000 0.000000e+000
   outer loop
     vertex 5.275000e+000 1.000000e-001 2.155000e+000
     vertex 5.230000e+000 1.000000e-001 2.155000e+000
     vertex 5.230000e+000 1.000000e-001 2.110000e+000
   endloop
 endfacet
 facet normal 0.000000e+000 -1.000000e+000 -0.000000e+000
   outer loop
     vertex 5.275000e+000 1.000000e-001 2.155000e+000
     vertex 5.230000e+000 1.000000e-001 1.930000e+000
     vertex 5.275000e+000 1.000000e-001 1.885000e+000
   endloop
 endfacet
 facet normal 0.000000e+000 -1.000000e+000 0.000000e+000
   outer loop
     vertex 5.275000e+000 1.000000e-001 2.155000e+000
     vertex 5.230000e+000 1.000000e-001 2.110000e+000
     vertex 5.230000e+000 1.000000e-001 1.930000e+000
   endloop
 endfacet
 facet normal 0.000000e+000 -1.000000e+000 -0.000000e+000
   outer loop
     vertex 5.590000e+000 1.000000e-001 1.930000e+000
     vertex 5.545000e+000 1.000000e-001 1.885000e+000
     vertex 5.590000e+000 1.000000e-001 1.885000e+000
   endloop
 endfacet
 facet normal -0.000000e+000 -1.000000e+000 0.000000e+000
   outer loop
     vertex 5.320000e+000 1.000000e-001 2.200000e+000
     vertex 5.275000e+000 1.000000e-001 2.200000e+000
     vertex 5.275000e+000 1.000000e-001 2.155000e+000
   endloop
 endfacet
 facet normal -0.000000e+000 -1.000000e+000 0.000000e+000
   outer loop
     vertex 5.545000e+000 1.000000e-001 2.155000e+000
     vertex 5.275000e+000 1.000000e-001 2.155000e+000
     vertex 5.275000e+000 1.000000e-001 1.885000e+000
   endloop
 endfacet
 facet normal 0.000000e+000 -1.000000e+000 -0.000000e+000
   outer loop
     vertex 5.545000e+000 1.000000e-001 2.155000e+000
     vertex 5.275000e+000 1.000000e-001 1.885000e+000
     vertex 5.545000e+000 1.000000e-001 1.885000e+000
   endloop
 endfacet
 facet normal 0.000000e+000 -1.000000e+000 0.000000e+000
   outer loop
     vertex 5.545000e+000 1.000000e-001 2.155000e+000
     vertex 5.320000e+000 1.000000e-001 2.200000e+000
     vertex 5.275000e+000 1.000000e-001 2.155000e+000
   endloop
 endfacet
 facet normal 0.000000e+000 -1.000000e+000 0.000000e+000
   outer loop
     vertex 5.545000e+000 1.000000e-001 2.155000e+000
     vertex 5.545000e+000 1.000000e-001 1.885000e+000
     vertex 5.590000e+000 1.000000e-001 1.930000e+000
   endloop
 endfacet
 facet normal 0.000000e+000 -1.000000e+000 0.000000e+000
   outer loop
     vertex 5.545000e+000 1.000000e-001 2.155000e+000
     vertex 5.590000e+000 1.000000e-001 1.930000e+000
     vertex 5.590000e+000 1.000000e-001 2.110000e+000
   endloop
 endfacet
 facet normal 0.000000e+000 -1.000000e+000 0.000000e+000
   outer loop
     vertex 5.545000e+000 1.000000e-001 2.155000e+000
     vertex 5.500000e+000 1.000000e-001 2.200000e+000
     vertex 5.320000e+000 1.000000e-001 2.200000e+000
   endloop
 endfacet
 facet normal 0.000000e+000 -1.000000e+000 -0.000000e+000
   outer loop
     vertex 5.635000e+000 1.000000e-001 2.110000e+000
     vertex 5.590000e+000 1.000000e-001 1.930000e+000
     vertex 5.635000e+000 1.000000e-001 1.930000e+000
   endloop
 endfacet
 facet normal -0.000000e+000 -1.000000e+000 0.000000e+000
   outer loop
     vertex 5.635000e+000 1.000000e-001 2.110000e+000
     vertex 5.590000e+000 1.000000e-001 2.110000e+000
     vertex 5.590000e+000 1.000000e-001 1.930000e+000
   endloop
 endfacet
 facet normal -0.000000e+000 -1.000000e+000 -0.000000e+000
   outer loop
     vertex 5.545000e+000 1.000000e-001 2.200000e+000
     vertex 5.500000e+000 1.000000e-001 2.200000e+000
     vertex 5.545000e+000 1.000000e-001 2.155000e+000
   endloop
 endfacet
 facet normal -0.000000e+000 -1.000000e+000 0.000000e+000
   outer loop
     vertex 5.500000e+000 1.000000e-001 2.245000e+000
     vertex 5.320000e+000 1.000000e-001 2.245000e+000
     vertex 5.320000e+000 1.000000e-001 2.200000e+000
   endloop
 endfacet
 facet normal 0.000000e+000 -1.000000e+000 -0.000000e+000
   outer loop
     vertex 5.500000e+000 1.000000e-001 2.245000e+000
     vertex 5.320000e+000 1.000000e-001 2.200000e+000
     vertex 5.500000e+000 1.000000e-001 2.200000e+000
   endloop
 endfacet
 facet normal -0.000000e+000 -1.000000e+000 -0.000000e+000
   outer loop
     vertex 5.590000e+000 1.000000e-001 2.155000e+000
     vertex 5.545000e+000 1.000000e-001 2.155000e+000
     vertex 5.590000e+000 1.000000e-001 2.110000e+000
   endloop
 endfacet
endsolid wallFanInlet2
