solid wallFanInlet1, STL ascii file, created with Open CASCADE Technology
 facet normal 0.000000e+000 -1.000000e+000 0.000000e+000
   outer loop
     vertex 3.345000e+000 1.000000e-001 1.885000e+000
     vertex 3.300000e+000 1.000000e-001 1.930000e+000
     vertex 3.300000e+000 1.000000e-001 1.885000e+000
   endloop
 endfacet
 facet normal 0.000000e+000 -1.000000e+000 0.000000e+000
   outer loop
     vertex 3.390000e+000 1.000000e-001 1.840000e+000
     vertex 3.345000e+000 1.000000e-001 1.885000e+000
     vertex 3.345000e+000 1.000000e-001 1.840000e+000
   endloop
 endfacet
 facet normal -0.000000e+000 -1.000000e+000 0.000000e+000
   outer loop
     vertex 3.300000e+000 1.000000e-001 2.110000e+000
     vertex 3.255000e+000 1.000000e-001 2.110000e+000
     vertex 3.255000e+000 1.000000e-001 1.930000e+000
   endloop
 endfacet
 facet normal 0.000000e+000 -1.000000e+000 -0.000000e+000
   outer loop
     vertex 3.300000e+000 1.000000e-001 2.110000e+000
     vertex 3.255000e+000 1.000000e-001 1.930000e+000
     vertex 3.300000e+000 1.000000e-001 1.930000e+000
   endloop
 endfacet
 facet normal -0.000000e+000 -1.000000e+000 0.000000e+000
   outer loop
     vertex 3.570000e+000 1.000000e-001 1.840000e+000
     vertex 3.390000e+000 1.000000e-001 1.840000e+000
     vertex 3.390000e+000 1.000000e-001 1.795000e+000
   endloop
 endfacet
 facet normal 0.000000e+000 -1.000000e+000 -0.000000e+000
   outer loop
     vertex 3.570000e+000 1.000000e-001 1.840000e+000
     vertex 3.390000e+000 1.000000e-001 1.795000e+000
     vertex 3.570000e+000 1.000000e-001 1.795000e+000
   endloop
 endfacet
 facet normal 0.000000e+000 -1.000000e+000 -0.000000e+000
   outer loop
     vertex 3.615000e+000 1.000000e-001 1.885000e+000
     vertex 3.570000e+000 1.000000e-001 1.840000e+000
     vertex 3.615000e+000 1.000000e-001 1.840000e+000
   endloop
 endfacet
 facet normal 0.000000e+000 -1.000000e+000 0.000000e+000
   outer loop
     vertex 3.615000e+000 1.000000e-001 1.885000e+000
     vertex 3.390000e+000 1.000000e-001 1.840000e+000
     vertex 3.570000e+000 1.000000e-001 1.840000e+000
   endloop
 endfacet
 facet normal -0.000000e+000 -1.000000e+000 0.000000e+000
   outer loop
     vertex 3.615000e+000 1.000000e-001 1.885000e+000
     vertex 3.345000e+000 1.000000e-001 1.885000e+000
     vertex 3.390000e+000 1.000000e-001 1.840000e+000
   endloop
 endfacet
 facet normal -0.000000e+000 -1.000000e+000 0.000000e+000
   outer loop
     vertex 3.345000e+000 1.000000e-001 2.155000e+000
     vertex 3.300000e+000 1.000000e-001 2.155000e+000
     vertex 3.300000e+000 1.000000e-001 2.110000e+000
   endloop
 endfacet
 facet normal 0.000000e+000 -1.000000e+000 -0.000000e+000
   outer loop
     vertex 3.345000e+000 1.000000e-001 2.155000e+000
     vertex 3.300000e+000 1.000000e-001 1.930000e+000
     vertex 3.345000e+000 1.000000e-001 1.885000e+000
   endloop
 endfacet
 facet normal 0.000000e+000 -1.000000e+000 0.000000e+000
   outer loop
     vertex 3.345000e+000 1.000000e-001 2.155000e+000
     vertex 3.300000e+000 1.000000e-001 2.110000e+000
     vertex 3.300000e+000 1.000000e-001 1.930000e+000
   endloop
 endfacet
 facet normal 0.000000e+000 -1.000000e+000 -0.000000e+000
   outer loop
     vertex 3.660000e+000 1.000000e-001 1.930000e+000
     vertex 3.615000e+000 1.000000e-001 1.885000e+000
     vertex 3.660000e+000 1.000000e-001 1.885000e+000
   endloop
 endfacet
 facet normal -0.000000e+000 -1.000000e+000 0.000000e+000
   outer loop
     vertex 3.390000e+000 1.000000e-001 2.200000e+000
     vertex 3.345000e+000 1.000000e-001 2.200000e+000
     vertex 3.345000e+000 1.000000e-001 2.155000e+000
   endloop
 endfacet
 facet normal -0.000000e+000 -1.000000e+000 0.000000e+000
   outer loop
     vertex 3.615000e+000 1.000000e-001 2.155000e+000
     vertex 3.345000e+000 1.000000e-001 2.155000e+000
     vertex 3.345000e+000 1.000000e-001 1.885000e+000
   endloop
 endfacet
 facet normal 0.000000e+000 -1.000000e+000 -0.000000e+000
   outer loop
     vertex 3.615000e+000 1.000000e-001 2.155000e+000
     vertex 3.345000e+000 1.000000e-001 1.885000e+000
     vertex 3.615000e+000 1.000000e-001 1.885000e+000
   endloop
 endfacet
 facet normal 0.000000e+000 -1.000000e+000 0.000000e+000
   outer loop
     vertex 3.615000e+000 1.000000e-001 2.155000e+000
     vertex 3.615000e+000 1.000000e-001 1.885000e+000
     vertex 3.660000e+000 1.000000e-001 1.930000e+000
   endloop
 endfacet
 facet normal 0.000000e+000 -1.000000e+000 0.000000e+000
   outer loop
     vertex 3.615000e+000 1.000000e-001 2.155000e+000
     vertex 3.660000e+000 1.000000e-001 1.930000e+000
     vertex 3.660000e+000 1.000000e-001 2.110000e+000
   endloop
 endfacet
 facet normal -0.000000e+000 -1.000000e+000 0.000000e+000
   outer loop
     vertex 3.570000e+000 1.000000e-001 2.200000e+000
     vertex 3.390000e+000 1.000000e-001 2.200000e+000
     vertex 3.345000e+000 1.000000e-001 2.155000e+000
   endloop
 endfacet
 facet normal 0.000000e+000 -1.000000e+000 -0.000000e+000
   outer loop
     vertex 3.570000e+000 1.000000e-001 2.200000e+000
     vertex 3.345000e+000 1.000000e-001 2.155000e+000
     vertex 3.615000e+000 1.000000e-001 2.155000e+000
   endloop
 endfacet
 facet normal 0.000000e+000 -1.000000e+000 -0.000000e+000
   outer loop
     vertex 3.705000e+000 1.000000e-001 2.110000e+000
     vertex 3.660000e+000 1.000000e-001 1.930000e+000
     vertex 3.705000e+000 1.000000e-001 1.930000e+000
   endloop
 endfacet
 facet normal -0.000000e+000 -1.000000e+000 0.000000e+000
   outer loop
     vertex 3.705000e+000 1.000000e-001 2.110000e+000
     vertex 3.660000e+000 1.000000e-001 2.110000e+000
     vertex 3.660000e+000 1.000000e-001 1.930000e+000
   endloop
 endfacet
 facet normal -0.000000e+000 -1.000000e+000 0.000000e+000
   outer loop
     vertex 3.570000e+000 1.000000e-001 2.245000e+000
     vertex 3.390000e+000 1.000000e-001 2.245000e+000
     vertex 3.390000e+000 1.000000e-001 2.200000e+000
   endloop
 endfacet
 facet normal 0.000000e+000 -1.000000e+000 -0.000000e+000
   outer loop
     vertex 3.570000e+000 1.000000e-001 2.245000e+000
     vertex 3.390000e+000 1.000000e-001 2.200000e+000
     vertex 3.570000e+000 1.000000e-001 2.200000e+000
   endloop
 endfacet
 facet normal -0.000000e+000 -1.000000e+000 -0.000000e+000
   outer loop
     vertex 3.660000e+000 1.000000e-001 2.155000e+000
     vertex 3.615000e+000 1.000000e-001 2.155000e+000
     vertex 3.660000e+000 1.000000e-001 2.110000e+000
   endloop
 endfacet
 facet normal -0.000000e+000 -1.000000e+000 -0.000000e+000
   outer loop
     vertex 3.615000e+000 1.000000e-001 2.200000e+000
     vertex 3.570000e+000 1.000000e-001 2.200000e+000
     vertex 3.615000e+000 1.000000e-001 2.155000e+000
   endloop
 endfacet
endsolid wallFanInlet1
