solid topFanInlets, STL ascii file, created with Open CASCADE Technology
 facet normal 0.000000e+000 0.000000e+000 1.000000e+000
   outer loop
     vertex 6.674036e+000 3.509347e+000 2.480000e+000
     vertex 6.629036e+000 3.554347e+000 2.480000e+000
     vertex 6.629036e+000 3.509347e+000 2.480000e+000
   endloop
 endfacet
 facet normal 0.000000e+000 0.000000e+000 1.000000e+000
   outer loop
     vertex 6.584036e+000 3.599347e+000 2.480000e+000
     vertex 6.584036e+000 3.554347e+000 2.480000e+000
     vertex 6.629036e+000 3.554347e+000 2.480000e+000
   endloop
 endfacet
 facet normal 0.000000e+000 0.000000e+000 1.000000e+000
   outer loop
     vertex 6.854036e+000 3.509347e+000 2.480000e+000
     vertex 6.674036e+000 3.509347e+000 2.480000e+000
     vertex 6.674036e+000 3.464347e+000 2.480000e+000
   endloop
 endfacet
 facet normal 0.000000e+000 0.000000e+000 1.000000e+000
   outer loop
     vertex 6.854036e+000 3.509347e+000 2.480000e+000
     vertex 6.674036e+000 3.464347e+000 2.480000e+000
     vertex 6.854036e+000 3.464347e+000 2.480000e+000
   endloop
 endfacet
 facet normal 0.000000e+000 0.000000e+000 1.000000e+000
   outer loop
     vertex 6.584036e+000 3.779347e+000 2.480000e+000
     vertex 6.539036e+000 3.779347e+000 2.480000e+000
     vertex 6.539036e+000 3.599347e+000 2.480000e+000
   endloop
 endfacet
 facet normal 0.000000e+000 0.000000e+000 1.000000e+000
   outer loop
     vertex 6.584036e+000 3.779347e+000 2.480000e+000
     vertex 6.539036e+000 3.599347e+000 2.480000e+000
     vertex 6.584036e+000 3.599347e+000 2.480000e+000
   endloop
 endfacet
 facet normal 0.000000e+000 0.000000e+000 1.000000e+000
   outer loop
     vertex 6.584036e+000 3.779347e+000 2.480000e+000
     vertex 6.584036e+000 3.599347e+000 2.480000e+000
     vertex 6.629036e+000 3.554347e+000 2.480000e+000
   endloop
 endfacet
 facet normal 0.000000e+000 0.000000e+000 1.000000e+000
   outer loop
     vertex 6.899036e+000 3.554347e+000 2.480000e+000
     vertex 6.854036e+000 3.509347e+000 2.480000e+000
     vertex 6.899036e+000 3.509347e+000 2.480000e+000
   endloop
 endfacet
 facet normal 0.000000e+000 0.000000e+000 1.000000e+000
   outer loop
     vertex 6.899036e+000 3.554347e+000 2.480000e+000
     vertex 6.674036e+000 3.509347e+000 2.480000e+000
     vertex 6.854036e+000 3.509347e+000 2.480000e+000
   endloop
 endfacet
 facet normal 0.000000e+000 0.000000e+000 1.000000e+000
   outer loop
     vertex 6.899036e+000 3.554347e+000 2.480000e+000
     vertex 6.629036e+000 3.554347e+000 2.480000e+000
     vertex 6.674036e+000 3.509347e+000 2.480000e+000
   endloop
 endfacet
 facet normal 0.000000e+000 0.000000e+000 1.000000e+000
   outer loop
     vertex 6.629036e+000 3.824347e+000 2.480000e+000
     vertex 6.584036e+000 3.824347e+000 2.480000e+000
     vertex 6.584036e+000 3.779347e+000 2.480000e+000
   endloop
 endfacet
 facet normal 0.000000e+000 0.000000e+000 1.000000e+000
   outer loop
     vertex 6.629036e+000 3.824347e+000 2.480000e+000
     vertex 6.584036e+000 3.779347e+000 2.480000e+000
     vertex 6.629036e+000 3.554347e+000 2.480000e+000
   endloop
 endfacet
 facet normal 0.000000e+000 0.000000e+000 1.000000e+000
   outer loop
     vertex 6.944036e+000 3.599347e+000 2.480000e+000
     vertex 6.899036e+000 3.554347e+000 2.480000e+000
     vertex 6.944036e+000 3.554347e+000 2.480000e+000
   endloop
 endfacet
 facet normal 0.000000e+000 0.000000e+000 1.000000e+000
   outer loop
     vertex 6.674036e+000 3.869347e+000 2.480000e+000
     vertex 6.629036e+000 3.869347e+000 2.480000e+000
     vertex 6.629036e+000 3.824347e+000 2.480000e+000
   endloop
 endfacet
 facet normal 0.000000e+000 0.000000e+000 1.000000e+000
   outer loop
     vertex 6.899036e+000 3.824347e+000 2.480000e+000
     vertex 6.674036e+000 3.869347e+000 2.480000e+000
     vertex 6.629036e+000 3.824347e+000 2.480000e+000
   endloop
 endfacet
 facet normal 0.000000e+000 0.000000e+000 1.000000e+000
   outer loop
     vertex 6.899036e+000 3.824347e+000 2.480000e+000
     vertex 6.629036e+000 3.824347e+000 2.480000e+000
     vertex 6.629036e+000 3.554347e+000 2.480000e+000
   endloop
 endfacet
 facet normal 0.000000e+000 0.000000e+000 1.000000e+000
   outer loop
     vertex 6.899036e+000 3.824347e+000 2.480000e+000
     vertex 6.629036e+000 3.554347e+000 2.480000e+000
     vertex 6.899036e+000 3.554347e+000 2.480000e+000
   endloop
 endfacet
 facet normal 0.000000e+000 0.000000e+000 1.000000e+000
   outer loop
     vertex 6.944036e+000 3.779347e+000 2.480000e+000
     vertex 6.899036e+000 3.554347e+000 2.480000e+000
     vertex 6.944036e+000 3.599347e+000 2.480000e+000
   endloop
 endfacet
 facet normal 0.000000e+000 0.000000e+000 1.000000e+000
   outer loop
     vertex 6.944036e+000 3.779347e+000 2.480000e+000
     vertex 6.899036e+000 3.824347e+000 2.480000e+000
     vertex 6.899036e+000 3.554347e+000 2.480000e+000
   endloop
 endfacet
 facet normal 0.000000e+000 0.000000e+000 1.000000e+000
   outer loop
     vertex 6.854036e+000 3.869347e+000 2.480000e+000
     vertex 6.674036e+000 3.869347e+000 2.480000e+000
     vertex 6.899036e+000 3.824347e+000 2.480000e+000
   endloop
 endfacet
 facet normal 0.000000e+000 0.000000e+000 1.000000e+000
   outer loop
     vertex 6.989036e+000 3.779347e+000 2.480000e+000
     vertex 6.944036e+000 3.599347e+000 2.480000e+000
     vertex 6.989036e+000 3.599347e+000 2.480000e+000
   endloop
 endfacet
 facet normal 0.000000e+000 0.000000e+000 1.000000e+000
   outer loop
     vertex 6.989036e+000 3.779347e+000 2.480000e+000
     vertex 6.944036e+000 3.779347e+000 2.480000e+000
     vertex 6.944036e+000 3.599347e+000 2.480000e+000
   endloop
 endfacet
 facet normal 0.000000e+000 0.000000e+000 1.000000e+000
   outer loop
     vertex 6.899036e+000 3.869347e+000 2.480000e+000
     vertex 6.854036e+000 3.869347e+000 2.480000e+000
     vertex 6.899036e+000 3.824347e+000 2.480000e+000
   endloop
 endfacet
 facet normal 0.000000e+000 0.000000e+000 1.000000e+000
   outer loop
     vertex 6.944036e+000 3.824347e+000 2.480000e+000
     vertex 6.899036e+000 3.824347e+000 2.480000e+000
     vertex 6.944036e+000 3.779347e+000 2.480000e+000
   endloop
 endfacet
 facet normal 0.000000e+000 0.000000e+000 1.000000e+000
   outer loop
     vertex 6.854036e+000 3.914347e+000 2.480000e+000
     vertex 6.674036e+000 3.914347e+000 2.480000e+000
     vertex 6.674036e+000 3.869347e+000 2.480000e+000
   endloop
 endfacet
 facet normal 0.000000e+000 0.000000e+000 1.000000e+000
   outer loop
     vertex 6.854036e+000 3.914347e+000 2.480000e+000
     vertex 6.674036e+000 3.869347e+000 2.480000e+000
     vertex 6.854036e+000 3.869347e+000 2.480000e+000
   endloop
 endfacet
 facet normal 0.000000e+000 0.000000e+000 1.000000e+000
   outer loop
     vertex 2.033853e+000 3.558486e+000 2.480000e+000
     vertex 1.988853e+000 3.603486e+000 2.480000e+000
     vertex 1.988853e+000 3.558486e+000 2.480000e+000
   endloop
 endfacet
 facet normal 0.000000e+000 0.000000e+000 1.000000e+000
   outer loop
     vertex 2.078853e+000 3.513486e+000 2.480000e+000
     vertex 2.033853e+000 3.558486e+000 2.480000e+000
     vertex 2.033853e+000 3.513486e+000 2.480000e+000
   endloop
 endfacet
 facet normal 0.000000e+000 0.000000e+000 1.000000e+000
   outer loop
     vertex 2.258853e+000 3.513486e+000 2.480000e+000
     vertex 2.078853e+000 3.513486e+000 2.480000e+000
     vertex 2.078853e+000 3.468486e+000 2.480000e+000
   endloop
 endfacet
 facet normal 0.000000e+000 0.000000e+000 1.000000e+000
   outer loop
     vertex 2.258853e+000 3.513486e+000 2.480000e+000
     vertex 2.078853e+000 3.468486e+000 2.480000e+000
     vertex 2.258853e+000 3.468486e+000 2.480000e+000
   endloop
 endfacet
 facet normal 0.000000e+000 0.000000e+000 1.000000e+000
   outer loop
     vertex 1.988853e+000 3.783486e+000 2.480000e+000
     vertex 1.943853e+000 3.783486e+000 2.480000e+000
     vertex 1.943853e+000 3.603486e+000 2.480000e+000
   endloop
 endfacet
 facet normal 0.000000e+000 0.000000e+000 1.000000e+000
   outer loop
     vertex 1.988853e+000 3.783486e+000 2.480000e+000
     vertex 1.943853e+000 3.603486e+000 2.480000e+000
     vertex 1.988853e+000 3.603486e+000 2.480000e+000
   endloop
 endfacet
 facet normal 0.000000e+000 0.000000e+000 1.000000e+000
   outer loop
     vertex 2.303853e+000 3.558486e+000 2.480000e+000
     vertex 2.258853e+000 3.513486e+000 2.480000e+000
     vertex 2.303853e+000 3.513486e+000 2.480000e+000
   endloop
 endfacet
 facet normal 0.000000e+000 0.000000e+000 1.000000e+000
   outer loop
     vertex 2.303853e+000 3.558486e+000 2.480000e+000
     vertex 2.078853e+000 3.513486e+000 2.480000e+000
     vertex 2.258853e+000 3.513486e+000 2.480000e+000
   endloop
 endfacet
 facet normal 0.000000e+000 0.000000e+000 1.000000e+000
   outer loop
     vertex 2.303853e+000 3.558486e+000 2.480000e+000
     vertex 2.033853e+000 3.558486e+000 2.480000e+000
     vertex 2.078853e+000 3.513486e+000 2.480000e+000
   endloop
 endfacet
 facet normal 0.000000e+000 0.000000e+000 1.000000e+000
   outer loop
     vertex 2.033853e+000 3.828486e+000 2.480000e+000
     vertex 1.988853e+000 3.828486e+000 2.480000e+000
     vertex 1.988853e+000 3.783486e+000 2.480000e+000
   endloop
 endfacet
 facet normal 0.000000e+000 0.000000e+000 1.000000e+000
   outer loop
     vertex 2.033853e+000 3.828486e+000 2.480000e+000
     vertex 1.988853e+000 3.603486e+000 2.480000e+000
     vertex 2.033853e+000 3.558486e+000 2.480000e+000
   endloop
 endfacet
 facet normal 0.000000e+000 0.000000e+000 1.000000e+000
   outer loop
     vertex 2.033853e+000 3.828486e+000 2.480000e+000
     vertex 1.988853e+000 3.783486e+000 2.480000e+000
     vertex 1.988853e+000 3.603486e+000 2.480000e+000
   endloop
 endfacet
 facet normal 0.000000e+000 0.000000e+000 1.000000e+000
   outer loop
     vertex 2.348853e+000 3.603486e+000 2.480000e+000
     vertex 2.303853e+000 3.558486e+000 2.480000e+000
     vertex 2.348853e+000 3.558486e+000 2.480000e+000
   endloop
 endfacet
 facet normal 0.000000e+000 0.000000e+000 1.000000e+000
   outer loop
     vertex 2.078853e+000 3.873486e+000 2.480000e+000
     vertex 2.033853e+000 3.873486e+000 2.480000e+000
     vertex 2.033853e+000 3.828486e+000 2.480000e+000
   endloop
 endfacet
 facet normal 0.000000e+000 0.000000e+000 1.000000e+000
   outer loop
     vertex 2.303853e+000 3.828486e+000 2.480000e+000
     vertex 2.033853e+000 3.828486e+000 2.480000e+000
     vertex 2.033853e+000 3.558486e+000 2.480000e+000
   endloop
 endfacet
 facet normal 0.000000e+000 0.000000e+000 1.000000e+000
   outer loop
     vertex 2.303853e+000 3.828486e+000 2.480000e+000
     vertex 2.033853e+000 3.558486e+000 2.480000e+000
     vertex 2.303853e+000 3.558486e+000 2.480000e+000
   endloop
 endfacet
 facet normal 0.000000e+000 0.000000e+000 1.000000e+000
   outer loop
     vertex 2.258853e+000 3.873486e+000 2.480000e+000
     vertex 2.078853e+000 3.873486e+000 2.480000e+000
     vertex 2.033853e+000 3.828486e+000 2.480000e+000
   endloop
 endfacet
 facet normal 0.000000e+000 0.000000e+000 1.000000e+000
   outer loop
     vertex 2.258853e+000 3.873486e+000 2.480000e+000
     vertex 2.033853e+000 3.828486e+000 2.480000e+000
     vertex 2.303853e+000 3.828486e+000 2.480000e+000
   endloop
 endfacet
 facet normal 0.000000e+000 0.000000e+000 1.000000e+000
   outer loop
     vertex 2.348853e+000 3.783486e+000 2.480000e+000
     vertex 2.303853e+000 3.558486e+000 2.480000e+000
     vertex 2.348853e+000 3.603486e+000 2.480000e+000
   endloop
 endfacet
 facet normal 0.000000e+000 0.000000e+000 1.000000e+000
   outer loop
     vertex 2.348853e+000 3.783486e+000 2.480000e+000
     vertex 2.303853e+000 3.828486e+000 2.480000e+000
     vertex 2.303853e+000 3.558486e+000 2.480000e+000
   endloop
 endfacet
 facet normal 0.000000e+000 0.000000e+000 1.000000e+000
   outer loop
     vertex 2.303853e+000 3.873486e+000 2.480000e+000
     vertex 2.258853e+000 3.873486e+000 2.480000e+000
     vertex 2.303853e+000 3.828486e+000 2.480000e+000
   endloop
 endfacet
 facet normal 0.000000e+000 0.000000e+000 1.000000e+000
   outer loop
     vertex 2.393853e+000 3.783486e+000 2.480000e+000
     vertex 2.348853e+000 3.603486e+000 2.480000e+000
     vertex 2.393853e+000 3.603486e+000 2.480000e+000
   endloop
 endfacet
 facet normal 0.000000e+000 0.000000e+000 1.000000e+000
   outer loop
     vertex 2.393853e+000 3.783486e+000 2.480000e+000
     vertex 2.348853e+000 3.783486e+000 2.480000e+000
     vertex 2.348853e+000 3.603486e+000 2.480000e+000
   endloop
 endfacet
 facet normal 0.000000e+000 0.000000e+000 1.000000e+000
   outer loop
     vertex 2.348853e+000 3.828486e+000 2.480000e+000
     vertex 2.303853e+000 3.828486e+000 2.480000e+000
     vertex 2.348853e+000 3.783486e+000 2.480000e+000
   endloop
 endfacet
 facet normal 0.000000e+000 0.000000e+000 1.000000e+000
   outer loop
     vertex 2.258853e+000 3.918486e+000 2.480000e+000
     vertex 2.078853e+000 3.918486e+000 2.480000e+000
     vertex 2.078853e+000 3.873486e+000 2.480000e+000
   endloop
 endfacet
 facet normal 0.000000e+000 0.000000e+000 1.000000e+000
   outer loop
     vertex 2.258853e+000 3.918486e+000 2.480000e+000
     vertex 2.078853e+000 3.873486e+000 2.480000e+000
     vertex 2.258853e+000 3.873486e+000 2.480000e+000
   endloop
 endfacet
endsolid topFanInlets
