solid wallFanInlet1, STL ascii file, created with Open CASCADE Technology
 facet normal 0.000000e+000 -1.000000e+000 0.000000e+000
   outer loop
     vertex 4.310000e+000 3.800000e-001 2.085000e+000
     vertex 4.265000e+000 3.800000e-001 2.130000e+000
     vertex 4.265000e+000 3.800000e-001 2.085000e+000
   endloop
 endfacet
 facet normal 0.000000e+000 -1.000000e+000 0.000000e+000
   outer loop
     vertex 4.355000e+000 3.800000e-001 2.040000e+000
     vertex 4.310000e+000 3.800000e-001 2.085000e+000
     vertex 4.310000e+000 3.800000e-001 2.040000e+000
   endloop
 endfacet
 facet normal -0.000000e+000 -1.000000e+000 0.000000e+000
   outer loop
     vertex 4.265000e+000 3.800000e-001 2.310000e+000
     vertex 4.220000e+000 3.800000e-001 2.310000e+000
     vertex 4.220000e+000 3.800000e-001 2.130000e+000
   endloop
 endfacet
 facet normal 0.000000e+000 -1.000000e+000 -0.000000e+000
   outer loop
     vertex 4.265000e+000 3.800000e-001 2.310000e+000
     vertex 4.220000e+000 3.800000e-001 2.130000e+000
     vertex 4.265000e+000 3.800000e-001 2.130000e+000
   endloop
 endfacet
 facet normal -0.000000e+000 -1.000000e+000 0.000000e+000
   outer loop
     vertex 4.535000e+000 3.800000e-001 2.040000e+000
     vertex 4.355000e+000 3.800000e-001 2.040000e+000
     vertex 4.355000e+000 3.800000e-001 1.995000e+000
   endloop
 endfacet
 facet normal 0.000000e+000 -1.000000e+000 -0.000000e+000
   outer loop
     vertex 4.535000e+000 3.800000e-001 2.040000e+000
     vertex 4.355000e+000 3.800000e-001 1.995000e+000
     vertex 4.535000e+000 3.800000e-001 1.995000e+000
   endloop
 endfacet
 facet normal 0.000000e+000 -1.000000e+000 -0.000000e+000
   outer loop
     vertex 4.580000e+000 3.800000e-001 2.085000e+000
     vertex 4.535000e+000 3.800000e-001 2.040000e+000
     vertex 4.580000e+000 3.800000e-001 2.040000e+000
   endloop
 endfacet
 facet normal 0.000000e+000 -1.000000e+000 0.000000e+000
   outer loop
     vertex 4.580000e+000 3.800000e-001 2.085000e+000
     vertex 4.355000e+000 3.800000e-001 2.040000e+000
     vertex 4.535000e+000 3.800000e-001 2.040000e+000
   endloop
 endfacet
 facet normal -0.000000e+000 -1.000000e+000 0.000000e+000
   outer loop
     vertex 4.580000e+000 3.800000e-001 2.085000e+000
     vertex 4.310000e+000 3.800000e-001 2.085000e+000
     vertex 4.355000e+000 3.800000e-001 2.040000e+000
   endloop
 endfacet
 facet normal -0.000000e+000 -1.000000e+000 0.000000e+000
   outer loop
     vertex 4.310000e+000 3.800000e-001 2.355000e+000
     vertex 4.265000e+000 3.800000e-001 2.355000e+000
     vertex 4.265000e+000 3.800000e-001 2.310000e+000
   endloop
 endfacet
 facet normal 0.000000e+000 -1.000000e+000 -0.000000e+000
   outer loop
     vertex 4.310000e+000 3.800000e-001 2.355000e+000
     vertex 4.265000e+000 3.800000e-001 2.130000e+000
     vertex 4.310000e+000 3.800000e-001 2.085000e+000
   endloop
 endfacet
 facet normal 0.000000e+000 -1.000000e+000 0.000000e+000
   outer loop
     vertex 4.310000e+000 3.800000e-001 2.355000e+000
     vertex 4.265000e+000 3.800000e-001 2.310000e+000
     vertex 4.265000e+000 3.800000e-001 2.130000e+000
   endloop
 endfacet
 facet normal 0.000000e+000 -1.000000e+000 -0.000000e+000
   outer loop
     vertex 4.625000e+000 3.800000e-001 2.130000e+000
     vertex 4.580000e+000 3.800000e-001 2.085000e+000
     vertex 4.625000e+000 3.800000e-001 2.085000e+000
   endloop
 endfacet
 facet normal -0.000000e+000 -1.000000e+000 0.000000e+000
   outer loop
     vertex 4.355000e+000 3.800000e-001 2.400000e+000
     vertex 4.310000e+000 3.800000e-001 2.400000e+000
     vertex 4.310000e+000 3.800000e-001 2.355000e+000
   endloop
 endfacet
 facet normal -0.000000e+000 -1.000000e+000 0.000000e+000
   outer loop
     vertex 4.580000e+000 3.800000e-001 2.355000e+000
     vertex 4.310000e+000 3.800000e-001 2.355000e+000
     vertex 4.310000e+000 3.800000e-001 2.085000e+000
   endloop
 endfacet
 facet normal 0.000000e+000 -1.000000e+000 -0.000000e+000
   outer loop
     vertex 4.580000e+000 3.800000e-001 2.355000e+000
     vertex 4.310000e+000 3.800000e-001 2.085000e+000
     vertex 4.580000e+000 3.800000e-001 2.085000e+000
   endloop
 endfacet
 facet normal -0.000000e+000 -1.000000e+000 0.000000e+000
   outer loop
     vertex 4.535000e+000 3.800000e-001 2.400000e+000
     vertex 4.355000e+000 3.800000e-001 2.400000e+000
     vertex 4.310000e+000 3.800000e-001 2.355000e+000
   endloop
 endfacet
 facet normal 0.000000e+000 -1.000000e+000 -0.000000e+000
   outer loop
     vertex 4.535000e+000 3.800000e-001 2.400000e+000
     vertex 4.310000e+000 3.800000e-001 2.355000e+000
     vertex 4.580000e+000 3.800000e-001 2.355000e+000
   endloop
 endfacet
 facet normal 0.000000e+000 -1.000000e+000 -0.000000e+000
   outer loop
     vertex 4.625000e+000 3.800000e-001 2.310000e+000
     vertex 4.580000e+000 3.800000e-001 2.085000e+000
     vertex 4.625000e+000 3.800000e-001 2.130000e+000
   endloop
 endfacet
 facet normal -0.000000e+000 -1.000000e+000 0.000000e+000
   outer loop
     vertex 4.625000e+000 3.800000e-001 2.310000e+000
     vertex 4.580000e+000 3.800000e-001 2.355000e+000
     vertex 4.580000e+000 3.800000e-001 2.085000e+000
   endloop
 endfacet
 facet normal -0.000000e+000 -1.000000e+000 0.000000e+000
   outer loop
     vertex 4.535000e+000 3.800000e-001 2.445000e+000
     vertex 4.355000e+000 3.800000e-001 2.445000e+000
     vertex 4.355000e+000 3.800000e-001 2.400000e+000
   endloop
 endfacet
 facet normal 0.000000e+000 -1.000000e+000 -0.000000e+000
   outer loop
     vertex 4.535000e+000 3.800000e-001 2.445000e+000
     vertex 4.355000e+000 3.800000e-001 2.400000e+000
     vertex 4.535000e+000 3.800000e-001 2.400000e+000
   endloop
 endfacet
 facet normal -0.000000e+000 -1.000000e+000 -0.000000e+000
   outer loop
     vertex 4.625000e+000 3.800000e-001 2.355000e+000
     vertex 4.580000e+000 3.800000e-001 2.355000e+000
     vertex 4.625000e+000 3.800000e-001 2.310000e+000
   endloop
 endfacet
 facet normal -0.000000e+000 -1.000000e+000 -0.000000e+000
   outer loop
     vertex 4.580000e+000 3.800000e-001 2.400000e+000
     vertex 4.535000e+000 3.800000e-001 2.400000e+000
     vertex 4.580000e+000 3.800000e-001 2.355000e+000
   endloop
 endfacet
 facet normal 0.000000e+000 -1.000000e+000 -0.000000e+000
   outer loop
     vertex 4.670000e+000 3.800000e-001 2.310000e+000
     vertex 4.625000e+000 3.800000e-001 2.130000e+000
     vertex 4.670000e+000 3.800000e-001 2.130000e+000
   endloop
 endfacet
 facet normal -0.000000e+000 -1.000000e+000 0.000000e+000
   outer loop
     vertex 4.670000e+000 3.800000e-001 2.310000e+000
     vertex 4.625000e+000 3.800000e-001 2.310000e+000
     vertex 4.625000e+000 3.800000e-001 2.130000e+000
   endloop
 endfacet
endsolid wallFanInlet1
